<mxfile host="Electron" modified="2024-03-14T10:09:52.661Z" agent="Mozilla/5.0 (Windows NT 10.0; Win64; x64) AppleWebKit/537.36 (KHTML, like Gecko) draw.io/21.4.0 Chrome/112.0.5615.204 Electron/24.5.1 Safari/537.36" etag="9ITilWSKlAxwM8le5Zqn" version="21.4.0" type="device" pages="3">
  <diagram id="9kUjLdXwX5VqoD8rsrzN" name="DAPPM">
    <mxGraphModel dx="1168" dy="671" grid="1" gridSize="10" guides="1" tooltips="1" connect="1" arrows="1" fold="1" page="1" pageScale="1" pageWidth="4681" pageHeight="3300" math="1" shadow="0">
      <root>
        <mxCell id="0" />
        <mxCell id="1" parent="0" />
        <mxCell id="a1WdyWydZBZSA9Zj49bi-11" value="Avg-pooling&lt;br&gt;（5,2）" style="rounded=0;whiteSpace=wrap;html=1;fillColor=#fff2cc;strokeColor=#d6b656;fontFamily=Times New Roman;" parent="1" vertex="1">
          <mxGeometry x="400" y="360" width="80" height="40" as="geometry" />
        </mxCell>
        <mxCell id="a1WdyWydZBZSA9Zj49bi-12" value="Avg-pooling&lt;br&gt;（9,4）" style="rounded=0;whiteSpace=wrap;html=1;fillColor=#fff2cc;strokeColor=#d6b656;fontFamily=Times New Roman;" parent="1" vertex="1">
          <mxGeometry x="480" y="360" width="80" height="40" as="geometry" />
        </mxCell>
        <mxCell id="a1WdyWydZBZSA9Zj49bi-13" value="Avg-pooling&lt;br&gt;（17,8）" style="rounded=0;whiteSpace=wrap;html=1;fillColor=#fff2cc;strokeColor=#d6b656;fontFamily=Times New Roman;" parent="1" vertex="1">
          <mxGeometry x="560" y="360" width="80" height="40" as="geometry" />
        </mxCell>
        <mxCell id="a1WdyWydZBZSA9Zj49bi-14" value="Avg-pooling&lt;br&gt;（Global）" style="rounded=0;whiteSpace=wrap;html=1;fillColor=#fff2cc;strokeColor=#d6b656;fontFamily=Times New Roman;" parent="1" vertex="1">
          <mxGeometry x="640" y="360" width="80" height="40" as="geometry" />
        </mxCell>
        <mxCell id="a1WdyWydZBZSA9Zj49bi-53" style="edgeStyle=orthogonalEdgeStyle;rounded=0;orthogonalLoop=1;jettySize=auto;html=1;fontFamily=Times New Roman;" parent="1" source="a1WdyWydZBZSA9Zj49bi-15" target="a1WdyWydZBZSA9Zj49bi-36" edge="1">
          <mxGeometry relative="1" as="geometry" />
        </mxCell>
        <mxCell id="a1WdyWydZBZSA9Zj49bi-15" value="Conv 1x1&lt;br&gt;Upsample" style="rounded=0;whiteSpace=wrap;html=1;fillColor=#dae8fc;strokeColor=#6c8ebf;fontFamily=Times New Roman;" parent="1" vertex="1">
          <mxGeometry x="400" y="400" width="80" height="40" as="geometry" />
        </mxCell>
        <mxCell id="a1WdyWydZBZSA9Zj49bi-54" style="edgeStyle=orthogonalEdgeStyle;rounded=0;orthogonalLoop=1;jettySize=auto;html=1;fontFamily=Times New Roman;" parent="1" source="a1WdyWydZBZSA9Zj49bi-16" edge="1">
          <mxGeometry relative="1" as="geometry">
            <mxPoint x="520" y="460" as="targetPoint" />
          </mxGeometry>
        </mxCell>
        <mxCell id="a1WdyWydZBZSA9Zj49bi-16" value="Conv 1x1&lt;br&gt;Upsample" style="rounded=0;whiteSpace=wrap;html=1;fillColor=#dae8fc;strokeColor=#6c8ebf;fontFamily=Times New Roman;" parent="1" vertex="1">
          <mxGeometry x="480" y="400" width="80" height="40" as="geometry" />
        </mxCell>
        <mxCell id="a1WdyWydZBZSA9Zj49bi-56" style="edgeStyle=orthogonalEdgeStyle;rounded=0;orthogonalLoop=1;jettySize=auto;html=1;fontFamily=Times New Roman;" parent="1" source="a1WdyWydZBZSA9Zj49bi-18" edge="1">
          <mxGeometry relative="1" as="geometry">
            <mxPoint x="600" y="460" as="targetPoint" />
          </mxGeometry>
        </mxCell>
        <mxCell id="a1WdyWydZBZSA9Zj49bi-18" value="Conv 1x1&lt;br&gt;Upsample" style="rounded=0;whiteSpace=wrap;html=1;fillColor=#dae8fc;strokeColor=#6c8ebf;fontFamily=Times New Roman;" parent="1" vertex="1">
          <mxGeometry x="560" y="400" width="80" height="40" as="geometry" />
        </mxCell>
        <mxCell id="a1WdyWydZBZSA9Zj49bi-57" style="edgeStyle=orthogonalEdgeStyle;rounded=0;orthogonalLoop=1;jettySize=auto;html=1;fontFamily=Times New Roman;" parent="1" source="a1WdyWydZBZSA9Zj49bi-21" edge="1">
          <mxGeometry relative="1" as="geometry">
            <mxPoint x="680" y="460" as="targetPoint" />
          </mxGeometry>
        </mxCell>
        <mxCell id="a1WdyWydZBZSA9Zj49bi-21" value="Conv 1x1&lt;br&gt;Upsample" style="rounded=0;whiteSpace=wrap;html=1;fillColor=#dae8fc;strokeColor=#6c8ebf;fontFamily=Times New Roman;" parent="1" vertex="1">
          <mxGeometry x="640" y="400" width="80" height="40" as="geometry" />
        </mxCell>
        <mxCell id="a1WdyWydZBZSA9Zj49bi-69" style="edgeStyle=orthogonalEdgeStyle;rounded=0;orthogonalLoop=1;jettySize=auto;html=1;entryX=0;entryY=0.5;entryDx=0;entryDy=0;fontFamily=Times New Roman;" parent="1" source="a1WdyWydZBZSA9Zj49bi-22" target="a1WdyWydZBZSA9Zj49bi-30" edge="1">
          <mxGeometry relative="1" as="geometry" />
        </mxCell>
        <mxCell id="a1WdyWydZBZSA9Zj49bi-22" value="Conv 1x1" style="rounded=0;whiteSpace=wrap;html=1;fillColor=#d5e8d4;strokeColor=#82b366;fontFamily=Times New Roman;" parent="1" vertex="1">
          <mxGeometry x="320" y="400" width="80" height="40" as="geometry" />
        </mxCell>
        <mxCell id="a1WdyWydZBZSA9Zj49bi-33" style="edgeStyle=orthogonalEdgeStyle;rounded=0;orthogonalLoop=1;jettySize=auto;html=1;entryX=0.167;entryY=0;entryDx=0;entryDy=0;entryPerimeter=0;fontFamily=Times New Roman;" parent="1" source="a1WdyWydZBZSA9Zj49bi-23" target="a1WdyWydZBZSA9Zj49bi-30" edge="1">
          <mxGeometry relative="1" as="geometry" />
        </mxCell>
        <mxCell id="a1WdyWydZBZSA9Zj49bi-23" value="Conv 3x3" style="rounded=0;whiteSpace=wrap;html=1;fillColor=#e1d5e7;strokeColor=#9673a6;fontFamily=Times New Roman;" parent="1" vertex="1">
          <mxGeometry x="400" y="500" width="80" height="40" as="geometry" />
        </mxCell>
        <mxCell id="a1WdyWydZBZSA9Zj49bi-34" style="edgeStyle=orthogonalEdgeStyle;rounded=0;orthogonalLoop=1;jettySize=auto;html=1;entryX=0.5;entryY=0;entryDx=0;entryDy=0;fontFamily=Times New Roman;" parent="1" source="a1WdyWydZBZSA9Zj49bi-27" target="a1WdyWydZBZSA9Zj49bi-30" edge="1">
          <mxGeometry relative="1" as="geometry" />
        </mxCell>
        <mxCell id="a1WdyWydZBZSA9Zj49bi-27" value="Conv 3x3" style="rounded=0;whiteSpace=wrap;html=1;fillColor=#e1d5e7;strokeColor=#9673a6;fontFamily=Times New Roman;" parent="1" vertex="1">
          <mxGeometry x="480" y="500" width="80" height="40" as="geometry" />
        </mxCell>
        <mxCell id="a1WdyWydZBZSA9Zj49bi-35" style="edgeStyle=orthogonalEdgeStyle;rounded=0;orthogonalLoop=1;jettySize=auto;html=1;entryX=0.833;entryY=0;entryDx=0;entryDy=0;entryPerimeter=0;fontFamily=Times New Roman;" parent="1" source="a1WdyWydZBZSA9Zj49bi-28" target="a1WdyWydZBZSA9Zj49bi-30" edge="1">
          <mxGeometry relative="1" as="geometry" />
        </mxCell>
        <mxCell id="a1WdyWydZBZSA9Zj49bi-28" value="Conv 3x3" style="rounded=0;whiteSpace=wrap;html=1;fillColor=#e1d5e7;strokeColor=#9673a6;fontFamily=Times New Roman;" parent="1" vertex="1">
          <mxGeometry x="560" y="500" width="80" height="40" as="geometry" />
        </mxCell>
        <mxCell id="a1WdyWydZBZSA9Zj49bi-29" value="Conv 3x3" style="rounded=0;whiteSpace=wrap;html=1;fillColor=#e1d5e7;strokeColor=#9673a6;fontFamily=Times New Roman;" parent="1" vertex="1">
          <mxGeometry x="640" y="500" width="80" height="40" as="geometry" />
        </mxCell>
        <mxCell id="a1WdyWydZBZSA9Zj49bi-86" style="edgeStyle=orthogonalEdgeStyle;rounded=0;orthogonalLoop=1;jettySize=auto;html=1;entryX=0.5;entryY=0;entryDx=0;entryDy=0;fontFamily=Times New Roman;" parent="1" source="a1WdyWydZBZSA9Zj49bi-30" target="a1WdyWydZBZSA9Zj49bi-79" edge="1">
          <mxGeometry relative="1" as="geometry" />
        </mxCell>
        <mxCell id="a1WdyWydZBZSA9Zj49bi-30" value="Concatenate" style="rounded=0;whiteSpace=wrap;html=1;fillColor=#f8cecc;strokeColor=#b85450;fontFamily=Times New Roman;" parent="1" vertex="1">
          <mxGeometry x="400" y="560" width="240" height="40" as="geometry" />
        </mxCell>
        <mxCell id="a1WdyWydZBZSA9Zj49bi-39" value="" style="group;fontFamily=Times New Roman;" parent="1" vertex="1" connectable="0">
          <mxGeometry x="430" y="460" width="20" height="20" as="geometry" />
        </mxCell>
        <mxCell id="a1WdyWydZBZSA9Zj49bi-36" value="" style="ellipse;whiteSpace=wrap;html=1;aspect=fixed;rounded=0;strokeColor=#000000;strokeWidth=1;fontFamily=Times New Roman;fontSize=12;fillColor=#fff2cc;container=0;" parent="a1WdyWydZBZSA9Zj49bi-39" vertex="1">
          <mxGeometry width="20" height="20" as="geometry" />
        </mxCell>
        <mxCell id="a1WdyWydZBZSA9Zj49bi-37" value="" style="endArrow=none;html=1;rounded=0;fontFamily=Times New Roman;fontSize=12;fontColor=default;exitX=0;exitY=0.5;exitDx=0;exitDy=0;strokeWidth=0.5;" parent="a1WdyWydZBZSA9Zj49bi-39" source="a1WdyWydZBZSA9Zj49bi-36" edge="1">
          <mxGeometry width="50" height="50" relative="1" as="geometry">
            <mxPoint x="5" y="10" as="sourcePoint" />
            <mxPoint x="20" y="10" as="targetPoint" />
          </mxGeometry>
        </mxCell>
        <mxCell id="a1WdyWydZBZSA9Zj49bi-38" value="" style="endArrow=none;html=1;rounded=0;fontFamily=Times New Roman;fontSize=12;fontColor=default;entryX=0.5;entryY=1;entryDx=0;entryDy=0;strokeWidth=0.5;" parent="a1WdyWydZBZSA9Zj49bi-39" target="a1WdyWydZBZSA9Zj49bi-36" edge="1">
          <mxGeometry width="50" height="50" relative="1" as="geometry">
            <mxPoint x="10.045000000000073" as="sourcePoint" />
            <mxPoint x="9.952499999999873" y="15" as="targetPoint" />
            <Array as="points" />
          </mxGeometry>
        </mxCell>
        <mxCell id="a1WdyWydZBZSA9Zj49bi-41" value="" style="group;fontFamily=Times New Roman;" parent="1" vertex="1" connectable="0">
          <mxGeometry x="510" y="460" width="20" height="20" as="geometry" />
        </mxCell>
        <mxCell id="a1WdyWydZBZSA9Zj49bi-42" value="" style="ellipse;whiteSpace=wrap;html=1;aspect=fixed;rounded=0;strokeColor=#000000;strokeWidth=1;fontFamily=Times New Roman;fontSize=12;fillColor=#fff2cc;container=0;" parent="a1WdyWydZBZSA9Zj49bi-41" vertex="1">
          <mxGeometry width="20" height="20" as="geometry" />
        </mxCell>
        <mxCell id="a1WdyWydZBZSA9Zj49bi-43" value="" style="endArrow=none;html=1;rounded=0;fontFamily=Times New Roman;fontSize=12;fontColor=default;exitX=0;exitY=0.5;exitDx=0;exitDy=0;strokeWidth=0.5;" parent="a1WdyWydZBZSA9Zj49bi-41" source="a1WdyWydZBZSA9Zj49bi-42" edge="1">
          <mxGeometry width="50" height="50" relative="1" as="geometry">
            <mxPoint x="5" y="10" as="sourcePoint" />
            <mxPoint x="20" y="10" as="targetPoint" />
          </mxGeometry>
        </mxCell>
        <mxCell id="a1WdyWydZBZSA9Zj49bi-44" value="" style="endArrow=none;html=1;rounded=0;fontFamily=Times New Roman;fontSize=12;fontColor=default;entryX=0.5;entryY=1;entryDx=0;entryDy=0;strokeWidth=0.5;" parent="a1WdyWydZBZSA9Zj49bi-41" target="a1WdyWydZBZSA9Zj49bi-42" edge="1">
          <mxGeometry width="50" height="50" relative="1" as="geometry">
            <mxPoint x="10.045000000000073" as="sourcePoint" />
            <mxPoint x="9.952499999999873" y="15" as="targetPoint" />
            <Array as="points" />
          </mxGeometry>
        </mxCell>
        <mxCell id="a1WdyWydZBZSA9Zj49bi-45" value="" style="group;fontFamily=Times New Roman;" parent="1" vertex="1" connectable="0">
          <mxGeometry x="590" y="460" width="20" height="20" as="geometry" />
        </mxCell>
        <mxCell id="a1WdyWydZBZSA9Zj49bi-46" value="" style="ellipse;whiteSpace=wrap;html=1;aspect=fixed;rounded=0;strokeColor=#000000;strokeWidth=1;fontFamily=Times New Roman;fontSize=12;fillColor=#fff2cc;container=0;" parent="a1WdyWydZBZSA9Zj49bi-45" vertex="1">
          <mxGeometry width="20" height="20" as="geometry" />
        </mxCell>
        <mxCell id="a1WdyWydZBZSA9Zj49bi-47" value="" style="endArrow=none;html=1;rounded=0;fontFamily=Times New Roman;fontSize=12;fontColor=default;exitX=0;exitY=0.5;exitDx=0;exitDy=0;strokeWidth=0.5;" parent="a1WdyWydZBZSA9Zj49bi-45" source="a1WdyWydZBZSA9Zj49bi-46" edge="1">
          <mxGeometry width="50" height="50" relative="1" as="geometry">
            <mxPoint x="5" y="10" as="sourcePoint" />
            <mxPoint x="20" y="10" as="targetPoint" />
          </mxGeometry>
        </mxCell>
        <mxCell id="a1WdyWydZBZSA9Zj49bi-48" value="" style="endArrow=none;html=1;rounded=0;fontFamily=Times New Roman;fontSize=12;fontColor=default;entryX=0.5;entryY=1;entryDx=0;entryDy=0;strokeWidth=0.5;" parent="a1WdyWydZBZSA9Zj49bi-45" target="a1WdyWydZBZSA9Zj49bi-46" edge="1">
          <mxGeometry width="50" height="50" relative="1" as="geometry">
            <mxPoint x="10.045000000000073" as="sourcePoint" />
            <mxPoint x="9.952499999999873" y="15" as="targetPoint" />
            <Array as="points" />
          </mxGeometry>
        </mxCell>
        <mxCell id="a1WdyWydZBZSA9Zj49bi-49" value="" style="group;fontFamily=Times New Roman;" parent="1" vertex="1" connectable="0">
          <mxGeometry x="670" y="460" width="20" height="20" as="geometry" />
        </mxCell>
        <mxCell id="a1WdyWydZBZSA9Zj49bi-50" value="" style="ellipse;whiteSpace=wrap;html=1;aspect=fixed;rounded=0;strokeColor=#000000;strokeWidth=1;fontFamily=Times New Roman;fontSize=12;fillColor=#fff2cc;container=0;" parent="a1WdyWydZBZSA9Zj49bi-49" vertex="1">
          <mxGeometry width="20" height="20" as="geometry" />
        </mxCell>
        <mxCell id="a1WdyWydZBZSA9Zj49bi-51" value="" style="endArrow=none;html=1;rounded=0;fontFamily=Times New Roman;fontSize=12;fontColor=default;exitX=0;exitY=0.5;exitDx=0;exitDy=0;strokeWidth=0.5;" parent="a1WdyWydZBZSA9Zj49bi-49" source="a1WdyWydZBZSA9Zj49bi-50" edge="1">
          <mxGeometry width="50" height="50" relative="1" as="geometry">
            <mxPoint x="5" y="10" as="sourcePoint" />
            <mxPoint x="20" y="10" as="targetPoint" />
          </mxGeometry>
        </mxCell>
        <mxCell id="a1WdyWydZBZSA9Zj49bi-52" value="" style="endArrow=none;html=1;rounded=0;fontFamily=Times New Roman;fontSize=12;fontColor=default;entryX=0.5;entryY=1;entryDx=0;entryDy=0;strokeWidth=0.5;" parent="a1WdyWydZBZSA9Zj49bi-49" target="a1WdyWydZBZSA9Zj49bi-50" edge="1">
          <mxGeometry width="50" height="50" relative="1" as="geometry">
            <mxPoint x="10.045000000000073" as="sourcePoint" />
            <mxPoint x="9.952499999999873" y="15" as="targetPoint" />
            <Array as="points" />
          </mxGeometry>
        </mxCell>
        <mxCell id="a1WdyWydZBZSA9Zj49bi-59" value="" style="endArrow=classic;html=1;rounded=0;fontFamily=Times New Roman;" parent="1" edge="1">
          <mxGeometry width="50" height="50" relative="1" as="geometry">
            <mxPoint x="360" y="486" as="sourcePoint" />
            <mxPoint x="670" y="470" as="targetPoint" />
            <Array as="points">
              <mxPoint x="640" y="486" />
              <mxPoint x="640" y="470" />
            </Array>
          </mxGeometry>
        </mxCell>
        <mxCell id="a1WdyWydZBZSA9Zj49bi-64" style="edgeStyle=orthogonalEdgeStyle;rounded=0;orthogonalLoop=1;jettySize=auto;html=1;entryX=0.5;entryY=0;entryDx=0;entryDy=0;fontFamily=Times New Roman;" parent="1" source="a1WdyWydZBZSA9Zj49bi-36" target="a1WdyWydZBZSA9Zj49bi-23" edge="1">
          <mxGeometry relative="1" as="geometry" />
        </mxCell>
        <mxCell id="a1WdyWydZBZSA9Zj49bi-65" value="" style="endArrow=classic;html=1;rounded=0;fontFamily=Times New Roman;" parent="1" edge="1">
          <mxGeometry width="50" height="50" relative="1" as="geometry">
            <mxPoint x="400" y="486" as="sourcePoint" />
            <mxPoint x="430" y="470" as="targetPoint" />
            <Array as="points">
              <mxPoint x="400" y="470" />
            </Array>
          </mxGeometry>
        </mxCell>
        <mxCell id="a1WdyWydZBZSA9Zj49bi-66" value="" style="endArrow=classic;html=1;rounded=0;fontFamily=Times New Roman;" parent="1" edge="1">
          <mxGeometry width="50" height="50" relative="1" as="geometry">
            <mxPoint x="480" y="486" as="sourcePoint" />
            <mxPoint x="510" y="470" as="targetPoint" />
            <Array as="points">
              <mxPoint x="480" y="470" />
            </Array>
          </mxGeometry>
        </mxCell>
        <mxCell id="a1WdyWydZBZSA9Zj49bi-67" value="" style="endArrow=classic;html=1;rounded=0;fontFamily=Times New Roman;" parent="1" edge="1">
          <mxGeometry width="50" height="50" relative="1" as="geometry">
            <mxPoint x="560" y="486" as="sourcePoint" />
            <mxPoint x="590" y="470" as="targetPoint" />
            <Array as="points">
              <mxPoint x="560" y="470" />
            </Array>
          </mxGeometry>
        </mxCell>
        <mxCell id="a1WdyWydZBZSA9Zj49bi-70" style="edgeStyle=orthogonalEdgeStyle;rounded=0;orthogonalLoop=1;jettySize=auto;html=1;entryX=0.5;entryY=0;entryDx=0;entryDy=0;fontFamily=Times New Roman;" parent="1" source="a1WdyWydZBZSA9Zj49bi-42" target="a1WdyWydZBZSA9Zj49bi-27" edge="1">
          <mxGeometry relative="1" as="geometry" />
        </mxCell>
        <mxCell id="a1WdyWydZBZSA9Zj49bi-71" style="edgeStyle=orthogonalEdgeStyle;rounded=0;orthogonalLoop=1;jettySize=auto;html=1;entryX=0.5;entryY=0;entryDx=0;entryDy=0;fontFamily=Times New Roman;" parent="1" source="a1WdyWydZBZSA9Zj49bi-46" target="a1WdyWydZBZSA9Zj49bi-28" edge="1">
          <mxGeometry relative="1" as="geometry" />
        </mxCell>
        <mxCell id="a1WdyWydZBZSA9Zj49bi-72" style="edgeStyle=orthogonalEdgeStyle;rounded=0;orthogonalLoop=1;jettySize=auto;html=1;exitX=0.5;exitY=1;exitDx=0;exitDy=0;entryX=0.5;entryY=0;entryDx=0;entryDy=0;fontFamily=Times New Roman;" parent="1" source="a1WdyWydZBZSA9Zj49bi-50" target="a1WdyWydZBZSA9Zj49bi-29" edge="1">
          <mxGeometry relative="1" as="geometry" />
        </mxCell>
        <mxCell id="a1WdyWydZBZSA9Zj49bi-74" value="" style="endArrow=classic;html=1;rounded=0;exitX=0.5;exitY=1;exitDx=0;exitDy=0;fontFamily=Times New Roman;" parent="1" source="a1WdyWydZBZSA9Zj49bi-29" edge="1">
          <mxGeometry width="50" height="50" relative="1" as="geometry">
            <mxPoint x="670" y="579.92" as="sourcePoint" />
            <mxPoint x="640" y="579.92" as="targetPoint" />
            <Array as="points">
              <mxPoint x="680" y="580" />
            </Array>
          </mxGeometry>
        </mxCell>
        <mxCell id="a1WdyWydZBZSA9Zj49bi-75" value="" style="endArrow=classic;startArrow=classic;html=1;rounded=0;entryX=1;entryY=0.5;entryDx=0;entryDy=0;fontFamily=Times New Roman;" parent="1" target="a1WdyWydZBZSA9Zj49bi-78" edge="1">
          <mxGeometry width="50" height="50" relative="1" as="geometry">
            <mxPoint x="360" y="400" as="sourcePoint" />
            <mxPoint x="740" y="630" as="targetPoint" />
            <Array as="points">
              <mxPoint x="360" y="340" />
              <mxPoint x="740" y="340" />
              <mxPoint x="740" y="690" />
            </Array>
          </mxGeometry>
        </mxCell>
        <mxCell id="a1WdyWydZBZSA9Zj49bi-85" style="edgeStyle=orthogonalEdgeStyle;rounded=0;orthogonalLoop=1;jettySize=auto;html=1;fontFamily=Times New Roman;" parent="1" source="a1WdyWydZBZSA9Zj49bi-78" edge="1">
          <mxGeometry relative="1" as="geometry">
            <mxPoint x="530" y="690" as="targetPoint" />
          </mxGeometry>
        </mxCell>
        <mxCell id="a1WdyWydZBZSA9Zj49bi-78" value="Conv 1x1" style="rounded=0;whiteSpace=wrap;html=1;fillColor=#d5e8d4;strokeColor=#82b366;fontFamily=Times New Roman;" parent="1" vertex="1">
          <mxGeometry x="600" y="670" width="80" height="40" as="geometry" />
        </mxCell>
        <mxCell id="a1WdyWydZBZSA9Zj49bi-87" style="edgeStyle=orthogonalEdgeStyle;rounded=0;orthogonalLoop=1;jettySize=auto;html=1;fontFamily=Times New Roman;" parent="1" source="a1WdyWydZBZSA9Zj49bi-79" edge="1">
          <mxGeometry relative="1" as="geometry">
            <mxPoint x="520" y="680" as="targetPoint" />
          </mxGeometry>
        </mxCell>
        <mxCell id="a1WdyWydZBZSA9Zj49bi-79" value="Conv 1x1" style="rounded=0;whiteSpace=wrap;html=1;fillColor=#d5e8d4;strokeColor=#82b366;fontFamily=Times New Roman;" parent="1" vertex="1">
          <mxGeometry x="480" y="620" width="80" height="40" as="geometry" />
        </mxCell>
        <mxCell id="a1WdyWydZBZSA9Zj49bi-80" value="" style="group;fontFamily=Times New Roman;" parent="1" vertex="1" connectable="0">
          <mxGeometry x="510" y="680" width="20" height="20" as="geometry" />
        </mxCell>
        <mxCell id="a1WdyWydZBZSA9Zj49bi-88" style="edgeStyle=orthogonalEdgeStyle;rounded=0;orthogonalLoop=1;jettySize=auto;html=1;fontFamily=Times New Roman;" parent="a1WdyWydZBZSA9Zj49bi-80" source="a1WdyWydZBZSA9Zj49bi-81" edge="1">
          <mxGeometry relative="1" as="geometry">
            <mxPoint x="10" y="40" as="targetPoint" />
          </mxGeometry>
        </mxCell>
        <mxCell id="a1WdyWydZBZSA9Zj49bi-81" value="" style="ellipse;whiteSpace=wrap;html=1;aspect=fixed;rounded=0;strokeColor=#000000;strokeWidth=1;fontFamily=Times New Roman;fontSize=12;fillColor=#fff2cc;container=0;" parent="a1WdyWydZBZSA9Zj49bi-80" vertex="1">
          <mxGeometry width="20" height="20" as="geometry" />
        </mxCell>
        <mxCell id="a1WdyWydZBZSA9Zj49bi-82" value="" style="endArrow=none;html=1;rounded=0;fontFamily=Times New Roman;fontSize=12;fontColor=default;exitX=0;exitY=0.5;exitDx=0;exitDy=0;strokeWidth=0.5;" parent="a1WdyWydZBZSA9Zj49bi-80" source="a1WdyWydZBZSA9Zj49bi-81" edge="1">
          <mxGeometry width="50" height="50" relative="1" as="geometry">
            <mxPoint x="5" y="10" as="sourcePoint" />
            <mxPoint x="20" y="10" as="targetPoint" />
          </mxGeometry>
        </mxCell>
        <mxCell id="a1WdyWydZBZSA9Zj49bi-83" value="" style="endArrow=none;html=1;rounded=0;fontFamily=Times New Roman;fontSize=12;fontColor=default;entryX=0.5;entryY=1;entryDx=0;entryDy=0;strokeWidth=0.5;" parent="a1WdyWydZBZSA9Zj49bi-80" target="a1WdyWydZBZSA9Zj49bi-81" edge="1">
          <mxGeometry width="50" height="50" relative="1" as="geometry">
            <mxPoint x="10.045000000000073" as="sourcePoint" />
            <mxPoint x="9.952499999999873" y="15" as="targetPoint" />
            <Array as="points" />
          </mxGeometry>
        </mxCell>
        <mxCell id="a1WdyWydZBZSA9Zj49bi-89" value="" style="endArrow=classic;html=1;rounded=0;fontFamily=Times New Roman;" parent="1" edge="1">
          <mxGeometry width="50" height="50" relative="1" as="geometry">
            <mxPoint x="440" y="340" as="sourcePoint" />
            <mxPoint x="439.8" y="360" as="targetPoint" />
          </mxGeometry>
        </mxCell>
        <mxCell id="a1WdyWydZBZSA9Zj49bi-90" value="" style="endArrow=classic;html=1;rounded=0;fontFamily=Times New Roman;" parent="1" edge="1">
          <mxGeometry width="50" height="50" relative="1" as="geometry">
            <mxPoint x="520.2" y="340" as="sourcePoint" />
            <mxPoint x="520" y="360" as="targetPoint" />
          </mxGeometry>
        </mxCell>
        <mxCell id="a1WdyWydZBZSA9Zj49bi-91" value="" style="endArrow=classic;html=1;rounded=0;fontFamily=Times New Roman;" parent="1" edge="1">
          <mxGeometry width="50" height="50" relative="1" as="geometry">
            <mxPoint x="600.2" y="340" as="sourcePoint" />
            <mxPoint x="600" y="360" as="targetPoint" />
          </mxGeometry>
        </mxCell>
        <mxCell id="a1WdyWydZBZSA9Zj49bi-92" value="" style="endArrow=classic;html=1;rounded=0;fontFamily=Times New Roman;" parent="1" edge="1">
          <mxGeometry width="50" height="50" relative="1" as="geometry">
            <mxPoint x="680.2" y="340" as="sourcePoint" />
            <mxPoint x="680" y="360" as="targetPoint" />
          </mxGeometry>
        </mxCell>
        <mxCell id="a1WdyWydZBZSA9Zj49bi-93" value="" style="endArrow=none;html=1;rounded=0;fontFamily=Times New Roman;" parent="1" edge="1">
          <mxGeometry width="50" height="50" relative="1" as="geometry">
            <mxPoint x="560" y="340" as="sourcePoint" />
            <mxPoint x="560" y="320" as="targetPoint" />
          </mxGeometry>
        </mxCell>
        <mxCell id="a1WdyWydZBZSA9Zj49bi-94" value="Input" style="text;strokeColor=none;fillColor=none;html=1;fontSize=11;fontStyle=1;verticalAlign=middle;align=center;fontFamily=Times New Roman;fontColor=default;" parent="1" vertex="1">
          <mxGeometry x="520" y="320" width="40" height="20" as="geometry" />
        </mxCell>
        <mxCell id="a1WdyWydZBZSA9Zj49bi-97" value="Output" style="text;strokeColor=none;fillColor=none;html=1;fontSize=11;fontStyle=1;verticalAlign=middle;align=center;fontFamily=Times New Roman;fontColor=default;" parent="1" vertex="1">
          <mxGeometry x="470" y="700" width="40" height="20" as="geometry" />
        </mxCell>
        <mxCell id="VJuNBzb7UI8ppEBbdNtt-1" value="&lt;span style=&quot;font-weight: normal;&quot;&gt;$$y_1$$&lt;/span&gt;" style="text;strokeColor=none;fillColor=none;html=1;fontSize=11;fontStyle=1;verticalAlign=middle;align=center;fontFamily=Times New Roman;fontColor=default;" parent="1" vertex="1">
          <mxGeometry x="370" y="560" width="20" height="20" as="geometry" />
        </mxCell>
        <mxCell id="VJuNBzb7UI8ppEBbdNtt-2" value="&lt;span style=&quot;font-weight: normal;&quot;&gt;$$y_2$$&lt;/span&gt;" style="text;strokeColor=none;fillColor=none;html=1;fontSize=11;fontStyle=1;verticalAlign=middle;align=center;fontFamily=Times New Roman;fontColor=default;" parent="1" vertex="1">
          <mxGeometry x="440" y="540" width="20" height="20" as="geometry" />
        </mxCell>
        <mxCell id="VJuNBzb7UI8ppEBbdNtt-3" value="&lt;span style=&quot;font-weight: normal;&quot;&gt;$$y_3$$&lt;/span&gt;" style="text;strokeColor=none;fillColor=none;html=1;fontSize=11;fontStyle=1;verticalAlign=middle;align=center;fontFamily=Times New Roman;fontColor=default;" parent="1" vertex="1">
          <mxGeometry x="520" y="540" width="20" height="20" as="geometry" />
        </mxCell>
        <mxCell id="VJuNBzb7UI8ppEBbdNtt-4" value="&lt;span style=&quot;font-weight: normal;&quot;&gt;$$y_4$$&lt;/span&gt;" style="text;strokeColor=none;fillColor=none;html=1;fontSize=11;fontStyle=1;verticalAlign=middle;align=center;fontFamily=Times New Roman;fontColor=default;" parent="1" vertex="1">
          <mxGeometry x="600" y="540" width="20" height="20" as="geometry" />
        </mxCell>
        <mxCell id="VJuNBzb7UI8ppEBbdNtt-5" value="&lt;span style=&quot;font-weight: normal;&quot;&gt;$$y_5$$&lt;/span&gt;" style="text;strokeColor=none;fillColor=none;html=1;fontSize=11;fontStyle=1;verticalAlign=middle;align=center;fontFamily=Times New Roman;fontColor=default;" parent="1" vertex="1">
          <mxGeometry x="650" y="560" width="20" height="20" as="geometry" />
        </mxCell>
      </root>
    </mxGraphModel>
  </diagram>
  <diagram name="PAPPM" id="nbhwp_EW4xEBFTHebsGn">
    <mxGraphModel dx="973" dy="559" grid="1" gridSize="10" guides="1" tooltips="1" connect="1" arrows="1" fold="1" page="1" pageScale="1" pageWidth="4681" pageHeight="3300" math="1" shadow="0">
      <root>
        <mxCell id="yU7KZK3OzCdIZzi9eAUn-0" />
        <mxCell id="yU7KZK3OzCdIZzi9eAUn-1" parent="yU7KZK3OzCdIZzi9eAUn-0" />
        <mxCell id="yU7KZK3OzCdIZzi9eAUn-2" value="&lt;font style=&quot;font-size: 10px;&quot;&gt;&lt;font face=&quot;宋体&quot;&gt;平均池化&lt;/font&gt;&lt;br&gt;（5,2）&lt;/font&gt;" style="rounded=0;whiteSpace=wrap;html=1;fillColor=#fff2cc;strokeColor=#d6b656;fontFamily=Times New Roman;" parent="yU7KZK3OzCdIZzi9eAUn-1" vertex="1">
          <mxGeometry x="400" y="360" width="80" height="30" as="geometry" />
        </mxCell>
        <mxCell id="yU7KZK3OzCdIZzi9eAUn-3" value="&lt;font style=&quot;font-size: 10px;&quot;&gt;&lt;font face=&quot;宋体&quot;&gt;平均池化&lt;br&gt;&lt;/font&gt;（9,4）&lt;/font&gt;" style="rounded=0;whiteSpace=wrap;html=1;fillColor=#fff2cc;strokeColor=#d6b656;fontFamily=Times New Roman;" parent="yU7KZK3OzCdIZzi9eAUn-1" vertex="1">
          <mxGeometry x="480" y="360" width="80" height="30" as="geometry" />
        </mxCell>
        <mxCell id="yU7KZK3OzCdIZzi9eAUn-4" value="&lt;font style=&quot;font-size: 10px;&quot;&gt;&lt;font face=&quot;宋体&quot;&gt;平均池化&lt;/font&gt;&lt;br&gt;（17,8）&lt;/font&gt;" style="rounded=0;whiteSpace=wrap;html=1;fillColor=#fff2cc;strokeColor=#d6b656;fontFamily=Times New Roman;" parent="yU7KZK3OzCdIZzi9eAUn-1" vertex="1">
          <mxGeometry x="560" y="360" width="80" height="30" as="geometry" />
        </mxCell>
        <mxCell id="yU7KZK3OzCdIZzi9eAUn-5" value="&lt;font style=&quot;font-size: 10px;&quot;&gt;全局平均池化&lt;/font&gt;" style="rounded=0;whiteSpace=wrap;html=1;fillColor=#fff2cc;strokeColor=#d6b656;fontFamily=宋体;" parent="yU7KZK3OzCdIZzi9eAUn-1" vertex="1">
          <mxGeometry x="640" y="360" width="80" height="30" as="geometry" />
        </mxCell>
        <mxCell id="yU7KZK3OzCdIZzi9eAUn-8" style="edgeStyle=orthogonalEdgeStyle;rounded=0;orthogonalLoop=1;jettySize=auto;html=1;endArrow=blockThin;endFill=1;endSize=4;fontFamily=Times New Roman;" parent="yU7KZK3OzCdIZzi9eAUn-1" edge="1">
          <mxGeometry relative="1" as="geometry">
            <mxPoint x="520" y="450" as="targetPoint" />
            <mxPoint x="520" y="430" as="sourcePoint" />
          </mxGeometry>
        </mxCell>
        <mxCell id="yU7KZK3OzCdIZzi9eAUn-10" style="edgeStyle=orthogonalEdgeStyle;rounded=0;orthogonalLoop=1;jettySize=auto;html=1;endArrow=blockThin;endFill=1;endSize=4;fontFamily=Times New Roman;" parent="yU7KZK3OzCdIZzi9eAUn-1" edge="1">
          <mxGeometry relative="1" as="geometry">
            <mxPoint x="600" y="450" as="targetPoint" />
            <mxPoint x="600" y="430" as="sourcePoint" />
          </mxGeometry>
        </mxCell>
        <mxCell id="yU7KZK3OzCdIZzi9eAUn-12" style="edgeStyle=orthogonalEdgeStyle;rounded=0;orthogonalLoop=1;jettySize=auto;html=1;endArrow=blockThin;endFill=1;endSize=4;fontFamily=Times New Roman;" parent="yU7KZK3OzCdIZzi9eAUn-1" edge="1">
          <mxGeometry relative="1" as="geometry">
            <mxPoint x="680" y="450" as="targetPoint" />
            <mxPoint x="680" y="430" as="sourcePoint" />
          </mxGeometry>
        </mxCell>
        <mxCell id="NdI3FOA9cHN9uQjFzYw7-38" style="edgeStyle=orthogonalEdgeStyle;rounded=0;orthogonalLoop=1;jettySize=auto;html=1;entryX=0;entryY=0.5;entryDx=0;entryDy=0;endSize=4;endArrow=blockThin;endFill=1;fontFamily=Times New Roman;" parent="yU7KZK3OzCdIZzi9eAUn-1" source="yU7KZK3OzCdIZzi9eAUn-15" target="NdI3FOA9cHN9uQjFzYw7-21" edge="1">
          <mxGeometry relative="1" as="geometry">
            <Array as="points">
              <mxPoint x="380" y="350" />
              <mxPoint x="380" y="605" />
            </Array>
          </mxGeometry>
        </mxCell>
        <mxCell id="yU7KZK3OzCdIZzi9eAUn-15" value="&lt;font style=&quot;font-size: 10px;&quot;&gt;&lt;font face=&quot;宋体&quot;&gt;卷积&lt;/font&gt; 1x1&lt;/font&gt;" style="rounded=0;whiteSpace=wrap;html=1;fillColor=#d5e8d4;strokeColor=#82b366;fontFamily=Times New Roman;" parent="yU7KZK3OzCdIZzi9eAUn-1" vertex="1">
          <mxGeometry x="400" y="340" width="320" height="20" as="geometry" />
        </mxCell>
        <mxCell id="NdI3FOA9cHN9uQjFzYw7-39" style="edgeStyle=orthogonalEdgeStyle;rounded=0;orthogonalLoop=1;jettySize=auto;html=1;entryX=0.125;entryY=0;entryDx=0;entryDy=0;entryPerimeter=0;endSize=4;endArrow=blockThin;endFill=1;fontFamily=Times New Roman;" parent="yU7KZK3OzCdIZzi9eAUn-1" source="yU7KZK3OzCdIZzi9eAUn-17" target="yU7KZK3OzCdIZzi9eAUn-24" edge="1">
          <mxGeometry relative="1" as="geometry" />
        </mxCell>
        <mxCell id="yU7KZK3OzCdIZzi9eAUn-17" value="&lt;font style=&quot;font-size: 10px;&quot;&gt;&lt;font face=&quot;宋体&quot;&gt;卷积&lt;/font&gt; 3x3&lt;/font&gt;" style="rounded=0;whiteSpace=wrap;html=1;fillColor=#e1d5e7;strokeColor=#9673a6;fontFamily=Times New Roman;" parent="yU7KZK3OzCdIZzi9eAUn-1" vertex="1">
          <mxGeometry x="400" y="480" width="80" height="20" as="geometry" />
        </mxCell>
        <mxCell id="yU7KZK3OzCdIZzi9eAUn-23" style="edgeStyle=orthogonalEdgeStyle;rounded=0;orthogonalLoop=1;jettySize=auto;html=1;entryX=0.5;entryY=0;entryDx=0;entryDy=0;endSize=4;endArrow=blockThin;endFill=1;fontFamily=Times New Roman;" parent="yU7KZK3OzCdIZzi9eAUn-1" source="yU7KZK3OzCdIZzi9eAUn-24" target="yU7KZK3OzCdIZzi9eAUn-54" edge="1">
          <mxGeometry relative="1" as="geometry" />
        </mxCell>
        <mxCell id="yU7KZK3OzCdIZzi9eAUn-24" value="&lt;font style=&quot;font-size: 10px;&quot;&gt;连接&lt;/font&gt;" style="rounded=0;whiteSpace=wrap;html=1;fillColor=#f8cecc;strokeColor=#b85450;fontFamily=宋体;" parent="yU7KZK3OzCdIZzi9eAUn-1" vertex="1">
          <mxGeometry x="400" y="520" width="320" height="20" as="geometry" />
        </mxCell>
        <mxCell id="yU7KZK3OzCdIZzi9eAUn-41" value="" style="endArrow=blockThin;html=1;rounded=0;endFill=1;endSize=4;entryX=0;entryY=0.5;entryDx=0;entryDy=0;fontFamily=Times New Roman;" parent="yU7KZK3OzCdIZzi9eAUn-1" target="NdI3FOA9cHN9uQjFzYw7-20" edge="1">
          <mxGeometry width="50" height="50" relative="1" as="geometry">
            <mxPoint x="380" y="466" as="sourcePoint" />
            <mxPoint x="670" y="450" as="targetPoint" />
            <Array as="points">
              <mxPoint x="420" y="466" />
              <mxPoint x="660" y="466" />
              <mxPoint x="660" y="455" />
            </Array>
          </mxGeometry>
        </mxCell>
        <mxCell id="yU7KZK3OzCdIZzi9eAUn-42" style="edgeStyle=orthogonalEdgeStyle;rounded=0;orthogonalLoop=1;jettySize=auto;html=1;entryX=0.5;entryY=0;entryDx=0;entryDy=0;endArrow=blockThin;endFill=1;endSize=4;fontFamily=Times New Roman;" parent="yU7KZK3OzCdIZzi9eAUn-1" target="yU7KZK3OzCdIZzi9eAUn-17" edge="1">
          <mxGeometry relative="1" as="geometry">
            <mxPoint x="439.9999999999999" y="460" as="sourcePoint" />
          </mxGeometry>
        </mxCell>
        <mxCell id="yU7KZK3OzCdIZzi9eAUn-43" value="" style="endArrow=blockThin;html=1;rounded=0;endFill=1;endSize=4;entryX=0;entryY=0.5;entryDx=0;entryDy=0;fontFamily=Times New Roman;" parent="yU7KZK3OzCdIZzi9eAUn-1" target="NdI3FOA9cHN9uQjFzYw7-17" edge="1">
          <mxGeometry width="50" height="50" relative="1" as="geometry">
            <mxPoint x="420" y="466" as="sourcePoint" />
            <mxPoint x="430" y="450" as="targetPoint" />
            <Array as="points">
              <mxPoint x="420" y="455" />
            </Array>
          </mxGeometry>
        </mxCell>
        <mxCell id="yU7KZK3OzCdIZzi9eAUn-46" style="edgeStyle=orthogonalEdgeStyle;rounded=0;orthogonalLoop=1;jettySize=auto;html=1;entryX=0.5;entryY=0;entryDx=0;entryDy=0;endArrow=blockThin;endFill=1;endSize=4;fontFamily=Times New Roman;" parent="yU7KZK3OzCdIZzi9eAUn-1" edge="1">
          <mxGeometry relative="1" as="geometry">
            <mxPoint x="519.9999999999999" y="460" as="sourcePoint" />
            <mxPoint x="520" y="480" as="targetPoint" />
          </mxGeometry>
        </mxCell>
        <mxCell id="yU7KZK3OzCdIZzi9eAUn-47" style="edgeStyle=orthogonalEdgeStyle;rounded=0;orthogonalLoop=1;jettySize=auto;html=1;entryX=0.5;entryY=0;entryDx=0;entryDy=0;endArrow=blockThin;endFill=1;endSize=4;fontFamily=Times New Roman;" parent="yU7KZK3OzCdIZzi9eAUn-1" edge="1">
          <mxGeometry relative="1" as="geometry">
            <mxPoint x="599.9999999999999" y="460" as="sourcePoint" />
            <mxPoint x="600.0000000000002" y="480" as="targetPoint" />
          </mxGeometry>
        </mxCell>
        <mxCell id="yU7KZK3OzCdIZzi9eAUn-48" style="edgeStyle=orthogonalEdgeStyle;rounded=0;orthogonalLoop=1;jettySize=auto;html=1;exitX=0.5;exitY=1;exitDx=0;exitDy=0;entryX=0.5;entryY=0;entryDx=0;entryDy=0;endArrow=blockThin;endFill=1;endSize=4;fontFamily=Times New Roman;" parent="yU7KZK3OzCdIZzi9eAUn-1" edge="1">
          <mxGeometry relative="1" as="geometry">
            <mxPoint x="680" y="460" as="sourcePoint" />
            <mxPoint x="680" y="480" as="targetPoint" />
          </mxGeometry>
        </mxCell>
        <mxCell id="NdI3FOA9cHN9uQjFzYw7-22" style="edgeStyle=orthogonalEdgeStyle;rounded=0;orthogonalLoop=1;jettySize=auto;html=1;entryX=0.5;entryY=0;entryDx=0;entryDy=0;endSize=4;endArrow=blockThin;endFill=1;fontFamily=Times New Roman;" parent="yU7KZK3OzCdIZzi9eAUn-1" source="yU7KZK3OzCdIZzi9eAUn-54" target="NdI3FOA9cHN9uQjFzYw7-21" edge="1">
          <mxGeometry relative="1" as="geometry" />
        </mxCell>
        <mxCell id="yU7KZK3OzCdIZzi9eAUn-54" value="&lt;font style=&quot;font-size: 10px;&quot;&gt;&lt;font face=&quot;宋体&quot;&gt;卷积&lt;/font&gt; 1x1&lt;/font&gt;" style="rounded=0;whiteSpace=wrap;html=1;fillColor=#d5e8d4;strokeColor=#82b366;fontFamily=Times New Roman;" parent="yU7KZK3OzCdIZzi9eAUn-1" vertex="1">
          <mxGeometry x="520" y="560" width="80" height="20" as="geometry" />
        </mxCell>
        <mxCell id="yU7KZK3OzCdIZzi9eAUn-65" value="Input" style="text;html=1;fontSize=11;fontStyle=0;verticalAlign=middle;align=center;fontFamily=Times New Roman;" parent="yU7KZK3OzCdIZzi9eAUn-1" vertex="1">
          <mxGeometry x="520" y="320" width="40" height="20" as="geometry" />
        </mxCell>
        <mxCell id="yU7KZK3OzCdIZzi9eAUn-66" value="Output" style="text;strokeColor=none;fillColor=none;html=1;fontSize=11;fontStyle=0;verticalAlign=middle;align=center;fontFamily=Times New Roman;fontColor=default;" parent="yU7KZK3OzCdIZzi9eAUn-1" vertex="1">
          <mxGeometry x="515" y="610" width="40" height="20" as="geometry" />
        </mxCell>
        <mxCell id="yU7KZK3OzCdIZzi9eAUn-67" value="&lt;span style=&quot;font-weight: normal;&quot;&gt;$$y_1$$&lt;/span&gt;" style="text;strokeColor=none;fillColor=none;html=1;fontSize=11;fontStyle=1;verticalAlign=middle;align=center;fontFamily=Times New Roman;fontColor=default;" parent="yU7KZK3OzCdIZzi9eAUn-1" vertex="1">
          <mxGeometry x="528" y="585" width="20" height="20" as="geometry" />
        </mxCell>
        <mxCell id="yU7KZK3OzCdIZzi9eAUn-68" value="&lt;span style=&quot;font-weight: normal;&quot;&gt;$$y_2$$&lt;/span&gt;" style="text;strokeColor=none;fillColor=none;html=1;fontSize=11;fontStyle=1;verticalAlign=middle;align=center;fontFamily=Times New Roman;fontColor=default;" parent="yU7KZK3OzCdIZzi9eAUn-1" vertex="1">
          <mxGeometry x="440" y="500" width="20" height="20" as="geometry" />
        </mxCell>
        <mxCell id="yU7KZK3OzCdIZzi9eAUn-69" value="&lt;span style=&quot;font-weight: normal;&quot;&gt;$$y_3$$&lt;/span&gt;" style="text;strokeColor=none;fillColor=none;html=1;fontSize=11;fontStyle=1;verticalAlign=middle;align=center;fontFamily=Times New Roman;fontColor=default;" parent="yU7KZK3OzCdIZzi9eAUn-1" vertex="1">
          <mxGeometry x="520" y="500" width="20" height="20" as="geometry" />
        </mxCell>
        <mxCell id="yU7KZK3OzCdIZzi9eAUn-70" value="&lt;span style=&quot;font-weight: normal;&quot;&gt;$$y_4$$&lt;/span&gt;" style="text;strokeColor=none;fillColor=none;html=1;fontSize=11;fontStyle=1;verticalAlign=middle;align=center;fontFamily=Times New Roman;fontColor=default;" parent="yU7KZK3OzCdIZzi9eAUn-1" vertex="1">
          <mxGeometry x="600" y="500" width="20" height="20" as="geometry" />
        </mxCell>
        <mxCell id="NdI3FOA9cHN9uQjFzYw7-10" style="edgeStyle=orthogonalEdgeStyle;rounded=0;orthogonalLoop=1;jettySize=auto;html=1;endArrow=blockThin;endFill=1;endSize=4;fontFamily=Times New Roman;" parent="yU7KZK3OzCdIZzi9eAUn-1" edge="1">
          <mxGeometry relative="1" as="geometry">
            <mxPoint x="440" y="450" as="targetPoint" />
            <mxPoint x="440" y="430" as="sourcePoint" />
          </mxGeometry>
        </mxCell>
        <mxCell id="NdI3FOA9cHN9uQjFzYw7-17" value="" style="shape=orEllipse;perimeter=ellipsePerimeter;whiteSpace=wrap;html=1;backgroundOutline=1;fontFamily=Times New Roman;" parent="yU7KZK3OzCdIZzi9eAUn-1" vertex="1">
          <mxGeometry x="435" y="450" width="10" height="10" as="geometry" />
        </mxCell>
        <mxCell id="NdI3FOA9cHN9uQjFzYw7-18" value="" style="shape=orEllipse;perimeter=ellipsePerimeter;whiteSpace=wrap;html=1;backgroundOutline=1;fontFamily=Times New Roman;" parent="yU7KZK3OzCdIZzi9eAUn-1" vertex="1">
          <mxGeometry x="515" y="450" width="10" height="10" as="geometry" />
        </mxCell>
        <mxCell id="NdI3FOA9cHN9uQjFzYw7-19" value="" style="shape=orEllipse;perimeter=ellipsePerimeter;whiteSpace=wrap;html=1;backgroundOutline=1;fontFamily=Times New Roman;" parent="yU7KZK3OzCdIZzi9eAUn-1" vertex="1">
          <mxGeometry x="595" y="450" width="10" height="10" as="geometry" />
        </mxCell>
        <mxCell id="NdI3FOA9cHN9uQjFzYw7-20" value="" style="shape=orEllipse;perimeter=ellipsePerimeter;whiteSpace=wrap;html=1;backgroundOutline=1;fontFamily=Times New Roman;" parent="yU7KZK3OzCdIZzi9eAUn-1" vertex="1">
          <mxGeometry x="675" y="450" width="10" height="10" as="geometry" />
        </mxCell>
        <mxCell id="NdI3FOA9cHN9uQjFzYw7-21" value="" style="shape=orEllipse;perimeter=ellipsePerimeter;whiteSpace=wrap;html=1;backgroundOutline=1;fontFamily=Times New Roman;" parent="yU7KZK3OzCdIZzi9eAUn-1" vertex="1">
          <mxGeometry x="555" y="600" width="10" height="10" as="geometry" />
        </mxCell>
        <mxCell id="NdI3FOA9cHN9uQjFzYw7-29" value="" style="group;fontFamily=Times New Roman;" parent="yU7KZK3OzCdIZzi9eAUn-1" vertex="1" connectable="0">
          <mxGeometry x="560" y="390" width="80" height="40" as="geometry" />
        </mxCell>
        <mxCell id="NdI3FOA9cHN9uQjFzYw7-31" value="&lt;font style=&quot;font-size: 10px;&quot;&gt;上采样&lt;/font&gt;" style="rounded=0;whiteSpace=wrap;html=1;fillColor=#dae8fc;strokeColor=#6c8ebf;fontFamily=宋体;" parent="NdI3FOA9cHN9uQjFzYw7-29" vertex="1">
          <mxGeometry y="20" width="80" height="20" as="geometry" />
        </mxCell>
        <mxCell id="el7iBM3VO0IqOy2rRDJG-1" value="&lt;font style=&quot;font-size: 10px;&quot;&gt;&lt;font face=&quot;宋体&quot;&gt;卷积&lt;/font&gt;&amp;nbsp;1x1&lt;/font&gt;" style="rounded=0;whiteSpace=wrap;html=1;fillColor=#d5e8d4;strokeColor=#82b366;fontFamily=Times New Roman;" vertex="1" parent="NdI3FOA9cHN9uQjFzYw7-29">
          <mxGeometry width="80" height="20" as="geometry" />
        </mxCell>
        <mxCell id="NdI3FOA9cHN9uQjFzYw7-40" style="edgeStyle=orthogonalEdgeStyle;rounded=0;orthogonalLoop=1;jettySize=auto;html=1;entryX=0.375;entryY=0;entryDx=0;entryDy=0;entryPerimeter=0;endSize=4;endArrow=blockThin;endFill=1;fontFamily=Times New Roman;" parent="yU7KZK3OzCdIZzi9eAUn-1" target="yU7KZK3OzCdIZzi9eAUn-24" edge="1">
          <mxGeometry relative="1" as="geometry">
            <mxPoint x="520" y="500" as="sourcePoint" />
          </mxGeometry>
        </mxCell>
        <mxCell id="NdI3FOA9cHN9uQjFzYw7-41" style="edgeStyle=orthogonalEdgeStyle;rounded=0;orthogonalLoop=1;jettySize=auto;html=1;entryX=0.625;entryY=0;entryDx=0;entryDy=0;entryPerimeter=0;endSize=4;endArrow=blockThin;endFill=1;fontFamily=Times New Roman;" parent="yU7KZK3OzCdIZzi9eAUn-1" target="yU7KZK3OzCdIZzi9eAUn-24" edge="1">
          <mxGeometry relative="1" as="geometry">
            <mxPoint x="600" y="500" as="sourcePoint" />
          </mxGeometry>
        </mxCell>
        <mxCell id="NdI3FOA9cHN9uQjFzYw7-42" style="edgeStyle=orthogonalEdgeStyle;rounded=0;orthogonalLoop=1;jettySize=auto;html=1;entryX=0.875;entryY=0;entryDx=0;entryDy=0;entryPerimeter=0;endSize=4;endArrow=blockThin;endFill=1;fontFamily=Times New Roman;" parent="yU7KZK3OzCdIZzi9eAUn-1" target="yU7KZK3OzCdIZzi9eAUn-24" edge="1">
          <mxGeometry relative="1" as="geometry">
            <mxPoint x="680" y="500" as="sourcePoint" />
          </mxGeometry>
        </mxCell>
        <mxCell id="NdI3FOA9cHN9uQjFzYw7-43" style="edgeStyle=orthogonalEdgeStyle;rounded=0;orthogonalLoop=1;jettySize=auto;html=1;entryX=0.5;entryY=0;entryDx=0;entryDy=0;endSize=4;endArrow=blockThin;endFill=1;fontFamily=Times New Roman;" parent="yU7KZK3OzCdIZzi9eAUn-1" edge="1">
          <mxGeometry relative="1" as="geometry">
            <mxPoint x="560" y="610" as="sourcePoint" />
            <mxPoint x="560" y="630" as="targetPoint" />
          </mxGeometry>
        </mxCell>
        <mxCell id="NdI3FOA9cHN9uQjFzYw7-45" style="edgeStyle=orthogonalEdgeStyle;rounded=0;orthogonalLoop=1;jettySize=auto;html=1;entryX=0.5;entryY=0;entryDx=0;entryDy=0;endSize=4;endArrow=blockThin;endFill=1;fontFamily=Times New Roman;" parent="yU7KZK3OzCdIZzi9eAUn-1" edge="1">
          <mxGeometry relative="1" as="geometry">
            <mxPoint x="559.8100000000001" y="320" as="sourcePoint" />
            <mxPoint x="559.8100000000001" y="340" as="targetPoint" />
          </mxGeometry>
        </mxCell>
        <mxCell id="NdI3FOA9cHN9uQjFzYw7-49" value="&lt;span style=&quot;font-weight: normal;&quot;&gt;$$y_5$$&lt;/span&gt;" style="text;strokeColor=none;fillColor=none;html=1;fontSize=11;fontStyle=1;verticalAlign=middle;align=center;fontFamily=Times New Roman;fontColor=default;" parent="yU7KZK3OzCdIZzi9eAUn-1" vertex="1">
          <mxGeometry x="680" y="500" width="20" height="20" as="geometry" />
        </mxCell>
        <mxCell id="NdI3FOA9cHN9uQjFzYw7-50" value="" style="endArrow=blockThin;html=1;rounded=0;endFill=1;endSize=4;entryX=0;entryY=0.5;entryDx=0;entryDy=0;fontFamily=Times New Roman;" parent="yU7KZK3OzCdIZzi9eAUn-1" edge="1">
          <mxGeometry width="50" height="50" relative="1" as="geometry">
            <mxPoint x="500" y="466" as="sourcePoint" />
            <mxPoint x="515" y="455" as="targetPoint" />
            <Array as="points">
              <mxPoint x="500" y="455" />
            </Array>
          </mxGeometry>
        </mxCell>
        <mxCell id="NdI3FOA9cHN9uQjFzYw7-51" value="" style="endArrow=blockThin;html=1;rounded=0;endFill=1;endSize=4;entryX=0;entryY=0.5;entryDx=0;entryDy=0;fontFamily=Times New Roman;" parent="yU7KZK3OzCdIZzi9eAUn-1" edge="1">
          <mxGeometry width="50" height="50" relative="1" as="geometry">
            <mxPoint x="580" y="466" as="sourcePoint" />
            <mxPoint x="595" y="455" as="targetPoint" />
            <Array as="points">
              <mxPoint x="580" y="455" />
            </Array>
          </mxGeometry>
        </mxCell>
        <mxCell id="NdI3FOA9cHN9uQjFzYw7-28" value="&lt;font style=&quot;font-size: 10px;&quot;&gt;上采样&lt;/font&gt;" style="rounded=0;whiteSpace=wrap;html=1;fillColor=#dae8fc;strokeColor=#6c8ebf;fontFamily=宋体;" parent="yU7KZK3OzCdIZzi9eAUn-1" vertex="1">
          <mxGeometry x="480" y="410" width="80" height="20" as="geometry" />
        </mxCell>
        <mxCell id="yU7KZK3OzCdIZzi9eAUn-7" value="&lt;font style=&quot;font-size: 10px;&quot;&gt;&lt;font face=&quot;宋体&quot;&gt;卷积&lt;/font&gt;&amp;nbsp;1x1&lt;/font&gt;" style="rounded=0;whiteSpace=wrap;html=1;fillColor=#d5e8d4;strokeColor=#82b366;fontFamily=Times New Roman;" parent="yU7KZK3OzCdIZzi9eAUn-1" vertex="1">
          <mxGeometry x="400" y="390" width="80" height="20" as="geometry" />
        </mxCell>
        <mxCell id="NdI3FOA9cHN9uQjFzYw7-3" value="&lt;font style=&quot;font-size: 10px;&quot;&gt;上采样&lt;/font&gt;" style="rounded=0;whiteSpace=wrap;html=1;fillColor=#dae8fc;strokeColor=#6c8ebf;fontFamily=宋体;" parent="yU7KZK3OzCdIZzi9eAUn-1" vertex="1">
          <mxGeometry x="400" y="410" width="80" height="20" as="geometry" />
        </mxCell>
        <mxCell id="el7iBM3VO0IqOy2rRDJG-0" value="&lt;font style=&quot;font-size: 10px;&quot;&gt;&lt;font face=&quot;宋体&quot;&gt;卷积&lt;/font&gt;&amp;nbsp;1x1&lt;/font&gt;" style="rounded=0;whiteSpace=wrap;html=1;fillColor=#d5e8d4;strokeColor=#82b366;fontFamily=Times New Roman;" vertex="1" parent="yU7KZK3OzCdIZzi9eAUn-1">
          <mxGeometry x="480" y="390" width="80" height="20" as="geometry" />
        </mxCell>
        <mxCell id="NdI3FOA9cHN9uQjFzYw7-34" value="&lt;font style=&quot;font-size: 10px;&quot;&gt;上采样&lt;/font&gt;" style="rounded=0;whiteSpace=wrap;html=1;fillColor=#dae8fc;strokeColor=#6c8ebf;fontFamily=宋体;" parent="yU7KZK3OzCdIZzi9eAUn-1" vertex="1">
          <mxGeometry x="640" y="410" width="80" height="20" as="geometry" />
        </mxCell>
        <mxCell id="el7iBM3VO0IqOy2rRDJG-2" value="&lt;font style=&quot;font-size: 10px;&quot;&gt;&lt;font face=&quot;宋体&quot;&gt;卷积&lt;/font&gt;&amp;nbsp;1x1&lt;/font&gt;" style="rounded=0;whiteSpace=wrap;html=1;fillColor=#d5e8d4;strokeColor=#82b366;fontFamily=Times New Roman;" vertex="1" parent="yU7KZK3OzCdIZzi9eAUn-1">
          <mxGeometry x="640" y="390" width="80" height="20" as="geometry" />
        </mxCell>
        <mxCell id="el7iBM3VO0IqOy2rRDJG-3" value="&lt;font style=&quot;font-size: 10px;&quot;&gt;&lt;font face=&quot;宋体&quot;&gt;卷积&lt;/font&gt; 3x3&lt;/font&gt;" style="rounded=0;whiteSpace=wrap;html=1;fillColor=#e1d5e7;strokeColor=#9673a6;fontFamily=Times New Roman;" vertex="1" parent="yU7KZK3OzCdIZzi9eAUn-1">
          <mxGeometry x="480" y="480" width="80" height="20" as="geometry" />
        </mxCell>
        <mxCell id="el7iBM3VO0IqOy2rRDJG-4" value="&lt;font style=&quot;font-size: 10px;&quot;&gt;&lt;font face=&quot;宋体&quot;&gt;卷积&lt;/font&gt; 3x3&lt;/font&gt;" style="rounded=0;whiteSpace=wrap;html=1;fillColor=#e1d5e7;strokeColor=#9673a6;fontFamily=Times New Roman;" vertex="1" parent="yU7KZK3OzCdIZzi9eAUn-1">
          <mxGeometry x="560" y="480" width="80" height="20" as="geometry" />
        </mxCell>
        <mxCell id="el7iBM3VO0IqOy2rRDJG-5" value="&lt;font style=&quot;font-size: 10px;&quot;&gt;&lt;font face=&quot;宋体&quot;&gt;卷积&lt;/font&gt; 3x3&lt;/font&gt;" style="rounded=0;whiteSpace=wrap;html=1;fillColor=#e1d5e7;strokeColor=#9673a6;fontFamily=Times New Roman;" vertex="1" parent="yU7KZK3OzCdIZzi9eAUn-1">
          <mxGeometry x="640" y="480" width="80" height="20" as="geometry" />
        </mxCell>
      </root>
    </mxGraphModel>
  </diagram>
  <diagram name="注意力模块V2" id="2rmF8PhWQdgW69K6CAtP">
    <mxGraphModel dx="818" dy="470" grid="1" gridSize="10" guides="1" tooltips="1" connect="1" arrows="1" fold="1" page="1" pageScale="1" pageWidth="4681" pageHeight="3300" math="1" shadow="0">
      <root>
        <mxCell id="YjZBUDS0GRoVtTZvDA5_-0" />
        <mxCell id="YjZBUDS0GRoVtTZvDA5_-1" parent="YjZBUDS0GRoVtTZvDA5_-0" />
        <mxCell id="gKNggyrzGUfjdoPQnagV-60" value="" style="endArrow=classic;html=1;rounded=0;exitX=0.5;exitY=1;exitDx=0;exitDy=0;strokeWidth=0.5;entryX=0.5;entryY=-0.025;entryDx=0;entryDy=0;entryPerimeter=0;" parent="YjZBUDS0GRoVtTZvDA5_-1" source="YjZBUDS0GRoVtTZvDA5_-26" target="YjZBUDS0GRoVtTZvDA5_-17" edge="1">
          <mxGeometry width="50" height="50" relative="1" as="geometry">
            <mxPoint x="430" y="430.72" as="sourcePoint" />
            <mxPoint x="420" y="440.72" as="targetPoint" />
          </mxGeometry>
        </mxCell>
        <mxCell id="YjZBUDS0GRoVtTZvDA5_-2" value="&lt;div style=&quot;text-align: justify;&quot;&gt;&lt;font style=&quot;font-size: 10px;&quot;&gt;(5,2)&lt;/font&gt;&lt;/div&gt;" style="rounded=0;whiteSpace=wrap;html=1;fillColor=#fff2cc;strokeColor=#d6b656;" parent="YjZBUDS0GRoVtTZvDA5_-1" vertex="1">
          <mxGeometry x="400" y="360" width="40" height="20" as="geometry" />
        </mxCell>
        <mxCell id="YjZBUDS0GRoVtTZvDA5_-3" value="&lt;font style=&quot;font-size: 10px;&quot;&gt;(9,4)&lt;/font&gt;" style="rounded=0;whiteSpace=wrap;html=1;fillColor=#fff2cc;strokeColor=#d6b656;" parent="YjZBUDS0GRoVtTZvDA5_-1" vertex="1">
          <mxGeometry x="440" y="360" width="40" height="20" as="geometry" />
        </mxCell>
        <mxCell id="YjZBUDS0GRoVtTZvDA5_-4" value="&lt;font style=&quot;font-size: 10px;&quot;&gt;(17,8)&lt;/font&gt;" style="rounded=0;whiteSpace=wrap;html=1;fillColor=#fff2cc;strokeColor=#d6b656;" parent="YjZBUDS0GRoVtTZvDA5_-1" vertex="1">
          <mxGeometry x="480" y="360" width="40" height="20" as="geometry" />
        </mxCell>
        <mxCell id="YjZBUDS0GRoVtTZvDA5_-5" value="&lt;font style=&quot;font-size: 10px;&quot;&gt;Global&lt;/font&gt;" style="rounded=0;whiteSpace=wrap;html=1;fillColor=#fff2cc;strokeColor=#d6b656;" parent="YjZBUDS0GRoVtTZvDA5_-1" vertex="1">
          <mxGeometry x="520" y="360" width="40" height="20" as="geometry" />
        </mxCell>
        <mxCell id="YjZBUDS0GRoVtTZvDA5_-7" value="&lt;font style=&quot;font-size: 10px;&quot;&gt;up1x1&lt;/font&gt;" style="rounded=0;whiteSpace=wrap;html=1;fillColor=#dae8fc;strokeColor=#6c8ebf;" parent="YjZBUDS0GRoVtTZvDA5_-1" vertex="1">
          <mxGeometry x="400" y="380" width="40" height="20" as="geometry" />
        </mxCell>
        <mxCell id="YjZBUDS0GRoVtTZvDA5_-9" value="&lt;font style=&quot;font-size: 10px;&quot;&gt;up1x1&lt;/font&gt;" style="rounded=0;whiteSpace=wrap;html=1;fillColor=#dae8fc;strokeColor=#6c8ebf;" parent="YjZBUDS0GRoVtTZvDA5_-1" vertex="1">
          <mxGeometry x="440" y="380" width="40" height="20" as="geometry" />
        </mxCell>
        <mxCell id="YjZBUDS0GRoVtTZvDA5_-11" value="&lt;font style=&quot;font-size: 10px;&quot;&gt;up1x1&lt;/font&gt;" style="rounded=0;whiteSpace=wrap;html=1;fillColor=#dae8fc;strokeColor=#6c8ebf;" parent="YjZBUDS0GRoVtTZvDA5_-1" vertex="1">
          <mxGeometry x="480" y="380" width="40" height="20" as="geometry" />
        </mxCell>
        <mxCell id="YjZBUDS0GRoVtTZvDA5_-13" value="&lt;font style=&quot;font-size: 10px;&quot;&gt;up1x1&lt;/font&gt;" style="rounded=0;whiteSpace=wrap;html=1;fillColor=#dae8fc;strokeColor=#6c8ebf;" parent="YjZBUDS0GRoVtTZvDA5_-1" vertex="1">
          <mxGeometry x="520" y="380" width="40" height="20" as="geometry" />
        </mxCell>
        <mxCell id="gKNggyrzGUfjdoPQnagV-24" style="edgeStyle=orthogonalEdgeStyle;rounded=0;orthogonalLoop=1;jettySize=auto;html=1;entryX=0;entryY=0.5;entryDx=0;entryDy=0;strokeWidth=0.5;" parent="YjZBUDS0GRoVtTZvDA5_-1" source="YjZBUDS0GRoVtTZvDA5_-15" target="YjZBUDS0GRoVtTZvDA5_-24" edge="1">
          <mxGeometry relative="1" as="geometry" />
        </mxCell>
        <mxCell id="YjZBUDS0GRoVtTZvDA5_-15" value="&lt;font style=&quot;font-size: 10px;&quot;&gt;conv1x1&lt;/font&gt;" style="rounded=0;whiteSpace=wrap;html=1;fillColor=#d5e8d4;strokeColor=#82b366;" parent="YjZBUDS0GRoVtTZvDA5_-1" vertex="1">
          <mxGeometry x="360" y="380" width="40" height="20" as="geometry" />
        </mxCell>
        <mxCell id="gKNggyrzGUfjdoPQnagV-22" style="edgeStyle=orthogonalEdgeStyle;rounded=0;orthogonalLoop=1;jettySize=auto;html=1;entryX=0.167;entryY=0;entryDx=0;entryDy=0;entryPerimeter=0;strokeWidth=0.5;" parent="YjZBUDS0GRoVtTZvDA5_-1" source="YjZBUDS0GRoVtTZvDA5_-17" target="YjZBUDS0GRoVtTZvDA5_-24" edge="1">
          <mxGeometry relative="1" as="geometry" />
        </mxCell>
        <mxCell id="YjZBUDS0GRoVtTZvDA5_-17" value="&lt;font style=&quot;font-size: 10px;&quot;&gt;conv1x1&lt;/font&gt;" style="rounded=0;whiteSpace=wrap;html=1;fillColor=#d5e8d4;strokeColor=#82b366;" parent="YjZBUDS0GRoVtTZvDA5_-1" vertex="1">
          <mxGeometry x="400" y="440.72" width="40" height="20" as="geometry" />
        </mxCell>
        <mxCell id="YjZBUDS0GRoVtTZvDA5_-19" value="&lt;font style=&quot;font-size: 10px;&quot;&gt;conv1x1&lt;/font&gt;" style="rounded=0;whiteSpace=wrap;html=1;fillColor=#d5e8d4;strokeColor=#82b366;" parent="YjZBUDS0GRoVtTZvDA5_-1" vertex="1">
          <mxGeometry x="440" y="440.72" width="40" height="20" as="geometry" />
        </mxCell>
        <mxCell id="YjZBUDS0GRoVtTZvDA5_-21" value="&lt;font style=&quot;font-size: 10px;&quot;&gt;conv1x1&lt;/font&gt;" style="rounded=0;whiteSpace=wrap;html=1;fillColor=#d5e8d4;strokeColor=#82b366;" parent="YjZBUDS0GRoVtTZvDA5_-1" vertex="1">
          <mxGeometry x="480" y="440.72" width="40" height="20" as="geometry" />
        </mxCell>
        <mxCell id="gKNggyrzGUfjdoPQnagV-23" style="edgeStyle=orthogonalEdgeStyle;rounded=0;orthogonalLoop=1;jettySize=auto;html=1;entryX=1;entryY=0.5;entryDx=0;entryDy=0;strokeWidth=0.5;" parent="YjZBUDS0GRoVtTZvDA5_-1" source="YjZBUDS0GRoVtTZvDA5_-22" target="YjZBUDS0GRoVtTZvDA5_-24" edge="1">
          <mxGeometry relative="1" as="geometry" />
        </mxCell>
        <mxCell id="YjZBUDS0GRoVtTZvDA5_-22" value="&lt;font style=&quot;font-size: 10px;&quot;&gt;conv1x1&lt;/font&gt;" style="rounded=0;whiteSpace=wrap;html=1;fillColor=#d5e8d4;strokeColor=#82b366;" parent="YjZBUDS0GRoVtTZvDA5_-1" vertex="1">
          <mxGeometry x="520" y="440.72" width="40" height="20" as="geometry" />
        </mxCell>
        <mxCell id="YjZBUDS0GRoVtTZvDA5_-24" value="&lt;font style=&quot;font-size: 10px;&quot;&gt;Concatenate&lt;/font&gt;" style="rounded=0;whiteSpace=wrap;html=1;fillColor=#f8cecc;strokeColor=#b85450;" parent="YjZBUDS0GRoVtTZvDA5_-1" vertex="1">
          <mxGeometry x="400" y="480.72" width="120" height="20" as="geometry" />
        </mxCell>
        <mxCell id="YjZBUDS0GRoVtTZvDA5_-25" value="" style="group;strokeWidth=1;perimeterSpacing=0;" parent="YjZBUDS0GRoVtTZvDA5_-1" vertex="1" connectable="0">
          <mxGeometry x="415" y="415" width="10" height="10" as="geometry" />
        </mxCell>
        <mxCell id="YjZBUDS0GRoVtTZvDA5_-26" value="" style="ellipse;whiteSpace=wrap;html=1;aspect=fixed;rounded=0;strokeColor=#000000;strokeWidth=1;fontFamily=Helvetica;fontSize=12;fillColor=#fff2cc;container=0;" parent="YjZBUDS0GRoVtTZvDA5_-25" vertex="1">
          <mxGeometry width="10" height="10" as="geometry" />
        </mxCell>
        <mxCell id="YjZBUDS0GRoVtTZvDA5_-27" value="" style="endArrow=none;html=1;rounded=0;fontFamily=Helvetica;fontSize=12;fontColor=default;exitX=0;exitY=0.5;exitDx=0;exitDy=0;strokeWidth=0.5;" parent="YjZBUDS0GRoVtTZvDA5_-25" source="YjZBUDS0GRoVtTZvDA5_-26" edge="1">
          <mxGeometry width="50" height="50" relative="1" as="geometry">
            <mxPoint x="2.5" y="5" as="sourcePoint" />
            <mxPoint x="10" y="5" as="targetPoint" />
          </mxGeometry>
        </mxCell>
        <mxCell id="YjZBUDS0GRoVtTZvDA5_-28" value="" style="endArrow=none;html=1;rounded=0;fontFamily=Helvetica;fontSize=12;fontColor=default;entryX=0.5;entryY=1;entryDx=0;entryDy=0;strokeWidth=0.5;" parent="YjZBUDS0GRoVtTZvDA5_-25" target="YjZBUDS0GRoVtTZvDA5_-26" edge="1">
          <mxGeometry width="50" height="50" relative="1" as="geometry">
            <mxPoint x="5.022500000000036" as="sourcePoint" />
            <mxPoint x="4.976249999999936" y="7.5" as="targetPoint" />
            <Array as="points" />
          </mxGeometry>
        </mxCell>
        <mxCell id="gKNggyrzGUfjdoPQnagV-39" style="edgeStyle=orthogonalEdgeStyle;rounded=0;orthogonalLoop=1;jettySize=auto;html=1;entryX=1;entryY=0.5;entryDx=0;entryDy=0;strokeWidth=0.5;" parent="YjZBUDS0GRoVtTZvDA5_-1" source="YjZBUDS0GRoVtTZvDA5_-52" target="YjZBUDS0GRoVtTZvDA5_-54" edge="1">
          <mxGeometry relative="1" as="geometry" />
        </mxCell>
        <mxCell id="YjZBUDS0GRoVtTZvDA5_-52" value="&lt;font style=&quot;font-size: 10px;&quot;&gt;conv1x1&lt;/font&gt;" style="rounded=0;whiteSpace=wrap;html=1;fillColor=#d5e8d4;strokeColor=#82b366;" parent="YjZBUDS0GRoVtTZvDA5_-1" vertex="1">
          <mxGeometry x="500" y="510.72" width="40" height="20" as="geometry" />
        </mxCell>
        <mxCell id="YjZBUDS0GRoVtTZvDA5_-54" value="&lt;font style=&quot;font-size: 10px;&quot;&gt;conv1x1&lt;/font&gt;" style="rounded=0;whiteSpace=wrap;html=1;fillColor=#d5e8d4;strokeColor=#82b366;" parent="YjZBUDS0GRoVtTZvDA5_-1" vertex="1">
          <mxGeometry x="440" y="510.72" width="40" height="20" as="geometry" />
        </mxCell>
        <mxCell id="YjZBUDS0GRoVtTZvDA5_-66" value="&lt;font style=&quot;font-size: 10px; font-weight: normal;&quot;&gt;Output&lt;/font&gt;" style="text;strokeColor=none;fillColor=none;html=1;fontSize=11;fontStyle=1;verticalAlign=middle;align=center;fontFamily=Helvetica;fontColor=default;" parent="YjZBUDS0GRoVtTZvDA5_-1" vertex="1">
          <mxGeometry x="420" y="530.72" width="40" height="20" as="geometry" />
        </mxCell>
        <mxCell id="YjZBUDS0GRoVtTZvDA5_-67" value="&lt;span style=&quot;font-weight: normal;&quot;&gt;&lt;font style=&quot;font-size: 10px;&quot;&gt;$$y_1$$&lt;/font&gt;&lt;/span&gt;" style="text;strokeColor=none;fillColor=none;html=1;fontSize=11;fontStyle=1;verticalAlign=middle;align=center;fontFamily=Helvetica;fontColor=default;" parent="YjZBUDS0GRoVtTZvDA5_-1" vertex="1">
          <mxGeometry x="380" y="468" width="20" height="20" as="geometry" />
        </mxCell>
        <mxCell id="YjZBUDS0GRoVtTZvDA5_-68" value="&lt;span style=&quot;font-weight: normal;&quot;&gt;&lt;font style=&quot;font-size: 10px;&quot;&gt;$$y_2$$&lt;/font&gt;&lt;/span&gt;" style="text;strokeColor=none;fillColor=none;html=1;fontSize=11;fontStyle=1;verticalAlign=middle;align=center;fontFamily=Helvetica;fontColor=default;" parent="YjZBUDS0GRoVtTZvDA5_-1" vertex="1">
          <mxGeometry x="420" y="460.72" width="20" height="20" as="geometry" />
        </mxCell>
        <mxCell id="YjZBUDS0GRoVtTZvDA5_-69" value="&lt;span style=&quot;font-weight: normal;&quot;&gt;&lt;font style=&quot;font-size: 10px;&quot;&gt;$$y_3$$&lt;/font&gt;&lt;/span&gt;" style="text;strokeColor=none;fillColor=none;html=1;fontSize=11;fontStyle=1;verticalAlign=middle;align=center;fontFamily=Helvetica;fontColor=default;" parent="YjZBUDS0GRoVtTZvDA5_-1" vertex="1">
          <mxGeometry x="460" y="460.72" width="20" height="20" as="geometry" />
        </mxCell>
        <mxCell id="YjZBUDS0GRoVtTZvDA5_-70" value="&lt;span style=&quot;font-weight: normal;&quot;&gt;&lt;font style=&quot;font-size: 10px;&quot;&gt;$$y_4$$&lt;/font&gt;&lt;/span&gt;" style="text;strokeColor=none;fillColor=none;html=1;fontSize=11;fontStyle=1;verticalAlign=middle;align=center;fontFamily=Helvetica;fontColor=default;" parent="YjZBUDS0GRoVtTZvDA5_-1" vertex="1">
          <mxGeometry x="500" y="460.72" width="20" height="20" as="geometry" />
        </mxCell>
        <mxCell id="YjZBUDS0GRoVtTZvDA5_-71" value="&lt;span style=&quot;font-weight: normal;&quot;&gt;&lt;font style=&quot;font-size: 10px;&quot;&gt;$$y_5$$&lt;/font&gt;&lt;/span&gt;" style="text;strokeColor=none;fillColor=none;html=1;fontSize=11;fontStyle=1;verticalAlign=middle;align=center;fontFamily=Helvetica;fontColor=default;" parent="YjZBUDS0GRoVtTZvDA5_-1" vertex="1">
          <mxGeometry x="520" y="468" width="20" height="20" as="geometry" />
        </mxCell>
        <mxCell id="gKNggyrzGUfjdoPQnagV-2" value="" style="endArrow=classic;html=1;rounded=0;strokeWidth=0.5;entryX=0.493;entryY=-0.042;entryDx=0;entryDy=0;entryPerimeter=0;" parent="YjZBUDS0GRoVtTZvDA5_-1" target="gKNggyrzGUfjdoPQnagV-52" edge="1">
          <mxGeometry width="50" height="50" relative="1" as="geometry">
            <mxPoint x="539.96" y="400" as="sourcePoint" />
            <mxPoint x="540" y="410" as="targetPoint" />
          </mxGeometry>
        </mxCell>
        <mxCell id="gKNggyrzGUfjdoPQnagV-4" value="" style="endArrow=classic;html=1;rounded=0;strokeWidth=0.5;entryX=0.499;entryY=-0.049;entryDx=0;entryDy=0;entryPerimeter=0;" parent="YjZBUDS0GRoVtTZvDA5_-1" target="gKNggyrzGUfjdoPQnagV-48" edge="1">
          <mxGeometry width="50" height="50" relative="1" as="geometry">
            <mxPoint x="500.00000000000006" y="400" as="sourcePoint" />
            <mxPoint x="500.00000000000006" y="410" as="targetPoint" />
          </mxGeometry>
        </mxCell>
        <mxCell id="gKNggyrzGUfjdoPQnagV-6" value="" style="endArrow=classic;html=1;rounded=0;strokeWidth=0.5;entryX=0.501;entryY=-0.064;entryDx=0;entryDy=0;entryPerimeter=0;" parent="YjZBUDS0GRoVtTZvDA5_-1" target="gKNggyrzGUfjdoPQnagV-44" edge="1">
          <mxGeometry width="50" height="50" relative="1" as="geometry">
            <mxPoint x="460.00000000000006" y="400" as="sourcePoint" />
            <mxPoint x="460" y="410" as="targetPoint" />
          </mxGeometry>
        </mxCell>
        <mxCell id="gKNggyrzGUfjdoPQnagV-8" value="" style="endArrow=classic;html=1;rounded=0;strokeWidth=0.5;entryX=0.496;entryY=-0.056;entryDx=0;entryDy=0;entryPerimeter=0;" parent="YjZBUDS0GRoVtTZvDA5_-1" target="YjZBUDS0GRoVtTZvDA5_-26" edge="1">
          <mxGeometry width="50" height="50" relative="1" as="geometry">
            <mxPoint x="420.00000000000006" y="400" as="sourcePoint" />
            <mxPoint x="420" y="410" as="targetPoint" />
          </mxGeometry>
        </mxCell>
        <mxCell id="gKNggyrzGUfjdoPQnagV-16" value="" style="endArrow=classic;html=1;rounded=0;strokeWidth=0.5;" parent="YjZBUDS0GRoVtTZvDA5_-1" edge="1">
          <mxGeometry width="50" height="50" relative="1" as="geometry">
            <mxPoint x="460.00000000000006" y="500.72" as="sourcePoint" />
            <mxPoint x="460.00000000000006" y="510.72" as="targetPoint" />
            <Array as="points">
              <mxPoint x="460.06" y="500.72" />
            </Array>
          </mxGeometry>
        </mxCell>
        <mxCell id="gKNggyrzGUfjdoPQnagV-18" value="" style="endArrow=classic;html=1;rounded=0;strokeWidth=0.5;" parent="YjZBUDS0GRoVtTZvDA5_-1" edge="1">
          <mxGeometry width="50" height="50" relative="1" as="geometry">
            <mxPoint x="459.89000000000004" y="530.72" as="sourcePoint" />
            <mxPoint x="460" y="551" as="targetPoint" />
            <Array as="points">
              <mxPoint x="459.95" y="530.72" />
            </Array>
          </mxGeometry>
        </mxCell>
        <mxCell id="gKNggyrzGUfjdoPQnagV-19" value="" style="endArrow=classic;html=1;rounded=0;strokeWidth=0.5;entryX=0.124;entryY=-0.007;entryDx=0;entryDy=0;entryPerimeter=0;" parent="YjZBUDS0GRoVtTZvDA5_-1" edge="1">
          <mxGeometry width="50" height="50" relative="1" as="geometry">
            <mxPoint x="459.87000000000006" y="460.72" as="sourcePoint" />
            <mxPoint x="459.93" y="480.72" as="targetPoint" />
            <Array as="points">
              <mxPoint x="459.93" y="460.72" />
            </Array>
          </mxGeometry>
        </mxCell>
        <mxCell id="gKNggyrzGUfjdoPQnagV-20" value="" style="endArrow=classic;html=1;rounded=0;strokeWidth=0.5;entryX=0.124;entryY=-0.007;entryDx=0;entryDy=0;entryPerimeter=0;" parent="YjZBUDS0GRoVtTZvDA5_-1" edge="1">
          <mxGeometry width="50" height="50" relative="1" as="geometry">
            <mxPoint x="499.87000000000006" y="460.72" as="sourcePoint" />
            <mxPoint x="499.93" y="480.72" as="targetPoint" />
            <Array as="points">
              <mxPoint x="499.93" y="460.72" />
            </Array>
          </mxGeometry>
        </mxCell>
        <mxCell id="gKNggyrzGUfjdoPQnagV-25" value="" style="endArrow=classic;html=1;rounded=0;strokeWidth=0.5;" parent="YjZBUDS0GRoVtTZvDA5_-1" edge="1">
          <mxGeometry width="50" height="50" relative="1" as="geometry">
            <mxPoint x="420.00000000000006" y="350" as="sourcePoint" />
            <mxPoint x="420.00000000000006" y="360" as="targetPoint" />
          </mxGeometry>
        </mxCell>
        <mxCell id="gKNggyrzGUfjdoPQnagV-26" value="" style="endArrow=classic;html=1;rounded=0;strokeWidth=0.5;" parent="YjZBUDS0GRoVtTZvDA5_-1" edge="1">
          <mxGeometry width="50" height="50" relative="1" as="geometry">
            <mxPoint x="460.00000000000006" y="350" as="sourcePoint" />
            <mxPoint x="460.00000000000006" y="360" as="targetPoint" />
          </mxGeometry>
        </mxCell>
        <mxCell id="gKNggyrzGUfjdoPQnagV-27" value="" style="endArrow=classic;html=1;rounded=0;strokeWidth=0.5;" parent="YjZBUDS0GRoVtTZvDA5_-1" edge="1">
          <mxGeometry width="50" height="50" relative="1" as="geometry">
            <mxPoint x="500.00000000000006" y="350" as="sourcePoint" />
            <mxPoint x="500.00000000000006" y="360" as="targetPoint" />
          </mxGeometry>
        </mxCell>
        <mxCell id="gKNggyrzGUfjdoPQnagV-28" value="" style="endArrow=classic;html=1;rounded=0;strokeWidth=0.5;" parent="YjZBUDS0GRoVtTZvDA5_-1" edge="1">
          <mxGeometry width="50" height="50" relative="1" as="geometry">
            <mxPoint x="539.96" y="350" as="sourcePoint" />
            <mxPoint x="539.96" y="360" as="targetPoint" />
          </mxGeometry>
        </mxCell>
        <mxCell id="gKNggyrzGUfjdoPQnagV-29" value="" style="endArrow=classic;html=1;rounded=0;strokeWidth=0.5;endFill=1;startArrow=classic;startFill=1;entryX=1.02;entryY=0.466;entryDx=0;entryDy=0;entryPerimeter=0;" parent="YjZBUDS0GRoVtTZvDA5_-1" target="YjZBUDS0GRoVtTZvDA5_-52" edge="1">
          <mxGeometry width="50" height="50" relative="1" as="geometry">
            <mxPoint x="380" y="380" as="sourcePoint" />
            <mxPoint x="560" y="520" as="targetPoint" />
            <Array as="points">
              <mxPoint x="380" y="350" />
              <mxPoint x="570" y="350" />
              <mxPoint x="570" y="520" />
            </Array>
          </mxGeometry>
        </mxCell>
        <mxCell id="gKNggyrzGUfjdoPQnagV-40" value="" style="endArrow=none;html=1;rounded=0;strokeWidth=0.5;" parent="YjZBUDS0GRoVtTZvDA5_-1" edge="1">
          <mxGeometry width="50" height="50" relative="1" as="geometry">
            <mxPoint x="480" y="350" as="sourcePoint" />
            <mxPoint x="480" y="330" as="targetPoint" />
          </mxGeometry>
        </mxCell>
        <mxCell id="gKNggyrzGUfjdoPQnagV-41" value="&lt;font style=&quot;font-size: 10px; font-weight: normal;&quot;&gt;Input&lt;/font&gt;" style="text;strokeColor=none;fillColor=none;html=1;fontSize=11;fontStyle=1;verticalAlign=middle;align=center;fontFamily=Helvetica;fontColor=default;" parent="YjZBUDS0GRoVtTZvDA5_-1" vertex="1">
          <mxGeometry x="440" y="330" width="40" height="20" as="geometry" />
        </mxCell>
        <mxCell id="gKNggyrzGUfjdoPQnagV-43" value="" style="group;strokeWidth=1;perimeterSpacing=0;" parent="YjZBUDS0GRoVtTZvDA5_-1" vertex="1" connectable="0">
          <mxGeometry x="455" y="415" width="10" height="10" as="geometry" />
        </mxCell>
        <mxCell id="gKNggyrzGUfjdoPQnagV-44" value="" style="ellipse;whiteSpace=wrap;html=1;aspect=fixed;rounded=0;strokeColor=#000000;strokeWidth=1;fontFamily=Helvetica;fontSize=12;fillColor=#fff2cc;container=0;" parent="gKNggyrzGUfjdoPQnagV-43" vertex="1">
          <mxGeometry width="10" height="10" as="geometry" />
        </mxCell>
        <mxCell id="gKNggyrzGUfjdoPQnagV-45" value="" style="endArrow=none;html=1;rounded=0;fontFamily=Helvetica;fontSize=12;fontColor=default;exitX=0;exitY=0.5;exitDx=0;exitDy=0;strokeWidth=0.5;" parent="gKNggyrzGUfjdoPQnagV-43" source="gKNggyrzGUfjdoPQnagV-44" edge="1">
          <mxGeometry width="50" height="50" relative="1" as="geometry">
            <mxPoint x="2.5" y="5" as="sourcePoint" />
            <mxPoint x="10" y="5" as="targetPoint" />
          </mxGeometry>
        </mxCell>
        <mxCell id="gKNggyrzGUfjdoPQnagV-46" value="" style="endArrow=none;html=1;rounded=0;fontFamily=Helvetica;fontSize=12;fontColor=default;entryX=0.5;entryY=1;entryDx=0;entryDy=0;strokeWidth=0.5;" parent="gKNggyrzGUfjdoPQnagV-43" target="gKNggyrzGUfjdoPQnagV-44" edge="1">
          <mxGeometry width="50" height="50" relative="1" as="geometry">
            <mxPoint x="5.022500000000036" as="sourcePoint" />
            <mxPoint x="4.976249999999936" y="7.5" as="targetPoint" />
            <Array as="points" />
          </mxGeometry>
        </mxCell>
        <mxCell id="gKNggyrzGUfjdoPQnagV-47" value="" style="group;strokeWidth=1;perimeterSpacing=0;" parent="YjZBUDS0GRoVtTZvDA5_-1" vertex="1" connectable="0">
          <mxGeometry x="495" y="415" width="10" height="10" as="geometry" />
        </mxCell>
        <mxCell id="gKNggyrzGUfjdoPQnagV-48" value="" style="ellipse;whiteSpace=wrap;html=1;aspect=fixed;rounded=0;strokeColor=#000000;strokeWidth=1;fontFamily=Helvetica;fontSize=12;fillColor=#fff2cc;container=0;" parent="gKNggyrzGUfjdoPQnagV-47" vertex="1">
          <mxGeometry width="10" height="10" as="geometry" />
        </mxCell>
        <mxCell id="gKNggyrzGUfjdoPQnagV-49" value="" style="endArrow=none;html=1;rounded=0;fontFamily=Helvetica;fontSize=12;fontColor=default;exitX=0;exitY=0.5;exitDx=0;exitDy=0;strokeWidth=0.5;" parent="gKNggyrzGUfjdoPQnagV-47" source="gKNggyrzGUfjdoPQnagV-48" edge="1">
          <mxGeometry width="50" height="50" relative="1" as="geometry">
            <mxPoint x="2.5" y="5" as="sourcePoint" />
            <mxPoint x="10" y="5" as="targetPoint" />
          </mxGeometry>
        </mxCell>
        <mxCell id="gKNggyrzGUfjdoPQnagV-50" value="" style="endArrow=none;html=1;rounded=0;fontFamily=Helvetica;fontSize=12;fontColor=default;entryX=0.5;entryY=1;entryDx=0;entryDy=0;strokeWidth=0.5;" parent="gKNggyrzGUfjdoPQnagV-47" target="gKNggyrzGUfjdoPQnagV-48" edge="1">
          <mxGeometry width="50" height="50" relative="1" as="geometry">
            <mxPoint x="5.022500000000036" as="sourcePoint" />
            <mxPoint x="4.976249999999936" y="7.5" as="targetPoint" />
            <Array as="points" />
          </mxGeometry>
        </mxCell>
        <mxCell id="gKNggyrzGUfjdoPQnagV-51" value="" style="group;strokeWidth=1;perimeterSpacing=0;" parent="YjZBUDS0GRoVtTZvDA5_-1" vertex="1" connectable="0">
          <mxGeometry x="535" y="415" width="10" height="10" as="geometry" />
        </mxCell>
        <mxCell id="gKNggyrzGUfjdoPQnagV-52" value="" style="ellipse;whiteSpace=wrap;html=1;aspect=fixed;rounded=0;strokeColor=#000000;strokeWidth=1;fontFamily=Helvetica;fontSize=12;fillColor=#fff2cc;container=0;" parent="gKNggyrzGUfjdoPQnagV-51" vertex="1">
          <mxGeometry width="10" height="10" as="geometry" />
        </mxCell>
        <mxCell id="gKNggyrzGUfjdoPQnagV-53" value="" style="endArrow=none;html=1;rounded=0;fontFamily=Helvetica;fontSize=12;fontColor=default;exitX=0;exitY=0.5;exitDx=0;exitDy=0;strokeWidth=0.5;" parent="gKNggyrzGUfjdoPQnagV-51" source="gKNggyrzGUfjdoPQnagV-52" edge="1">
          <mxGeometry width="50" height="50" relative="1" as="geometry">
            <mxPoint x="2.5" y="5" as="sourcePoint" />
            <mxPoint x="10" y="5" as="targetPoint" />
          </mxGeometry>
        </mxCell>
        <mxCell id="gKNggyrzGUfjdoPQnagV-54" value="" style="endArrow=none;html=1;rounded=0;fontFamily=Helvetica;fontSize=12;fontColor=default;entryX=0.5;entryY=1;entryDx=0;entryDy=0;strokeWidth=0.5;" parent="gKNggyrzGUfjdoPQnagV-51" target="gKNggyrzGUfjdoPQnagV-52" edge="1">
          <mxGeometry width="50" height="50" relative="1" as="geometry">
            <mxPoint x="5.022500000000036" as="sourcePoint" />
            <mxPoint x="4.976249999999936" y="7.5" as="targetPoint" />
            <Array as="points" />
          </mxGeometry>
        </mxCell>
        <mxCell id="gKNggyrzGUfjdoPQnagV-61" value="" style="endArrow=classic;html=1;rounded=0;exitX=0.5;exitY=1;exitDx=0;exitDy=0;strokeWidth=0.5;entryX=0.5;entryY=-0.025;entryDx=0;entryDy=0;entryPerimeter=0;" parent="YjZBUDS0GRoVtTZvDA5_-1" edge="1">
          <mxGeometry width="50" height="50" relative="1" as="geometry">
            <mxPoint x="460" y="425.72" as="sourcePoint" />
            <mxPoint x="460" y="440.72" as="targetPoint" />
          </mxGeometry>
        </mxCell>
        <mxCell id="gKNggyrzGUfjdoPQnagV-62" value="" style="endArrow=classic;html=1;rounded=0;exitX=0.5;exitY=1;exitDx=0;exitDy=0;strokeWidth=0.5;entryX=0.5;entryY=-0.025;entryDx=0;entryDy=0;entryPerimeter=0;" parent="YjZBUDS0GRoVtTZvDA5_-1" edge="1">
          <mxGeometry width="50" height="50" relative="1" as="geometry">
            <mxPoint x="500" y="425.72" as="sourcePoint" />
            <mxPoint x="500" y="440.72" as="targetPoint" />
          </mxGeometry>
        </mxCell>
        <mxCell id="gKNggyrzGUfjdoPQnagV-63" value="" style="endArrow=classic;html=1;rounded=0;exitX=0.5;exitY=1;exitDx=0;exitDy=0;strokeWidth=0.5;entryX=0.5;entryY=-0.025;entryDx=0;entryDy=0;entryPerimeter=0;" parent="YjZBUDS0GRoVtTZvDA5_-1" edge="1">
          <mxGeometry width="50" height="50" relative="1" as="geometry">
            <mxPoint x="540" y="425.72" as="sourcePoint" />
            <mxPoint x="540" y="440.72" as="targetPoint" />
          </mxGeometry>
        </mxCell>
        <mxCell id="gKNggyrzGUfjdoPQnagV-64" value="" style="endArrow=classic;html=1;rounded=0;entryX=0;entryY=0.5;entryDx=0;entryDy=0;strokeWidth=0.5;" parent="YjZBUDS0GRoVtTZvDA5_-1" target="gKNggyrzGUfjdoPQnagV-52" edge="1">
          <mxGeometry width="50" height="50" relative="1" as="geometry">
            <mxPoint x="380" y="430" as="sourcePoint" />
            <mxPoint x="430" y="380" as="targetPoint" />
            <Array as="points">
              <mxPoint x="520" y="430" />
              <mxPoint x="520" y="420" />
            </Array>
          </mxGeometry>
        </mxCell>
        <mxCell id="gKNggyrzGUfjdoPQnagV-65" value="" style="endArrow=classic;html=1;rounded=0;entryX=-0.05;entryY=0.498;entryDx=0;entryDy=0;entryPerimeter=0;strokeWidth=0.5;" parent="YjZBUDS0GRoVtTZvDA5_-1" target="YjZBUDS0GRoVtTZvDA5_-26" edge="1">
          <mxGeometry width="50" height="50" relative="1" as="geometry">
            <mxPoint x="400" y="430" as="sourcePoint" />
            <mxPoint x="450" y="380" as="targetPoint" />
            <Array as="points">
              <mxPoint x="400" y="420" />
            </Array>
          </mxGeometry>
        </mxCell>
        <mxCell id="gKNggyrzGUfjdoPQnagV-66" value="" style="endArrow=classic;html=1;rounded=0;entryX=-0.05;entryY=0.498;entryDx=0;entryDy=0;entryPerimeter=0;strokeWidth=0.5;" parent="YjZBUDS0GRoVtTZvDA5_-1" edge="1">
          <mxGeometry width="50" height="50" relative="1" as="geometry">
            <mxPoint x="440" y="430" as="sourcePoint" />
            <mxPoint x="455" y="420" as="targetPoint" />
            <Array as="points">
              <mxPoint x="440" y="420" />
            </Array>
          </mxGeometry>
        </mxCell>
        <mxCell id="gKNggyrzGUfjdoPQnagV-67" value="" style="endArrow=classic;html=1;rounded=0;entryX=-0.05;entryY=0.498;entryDx=0;entryDy=0;entryPerimeter=0;strokeWidth=0.5;" parent="YjZBUDS0GRoVtTZvDA5_-1" edge="1">
          <mxGeometry width="50" height="50" relative="1" as="geometry">
            <mxPoint x="480" y="430" as="sourcePoint" />
            <mxPoint x="495" y="420" as="targetPoint" />
            <Array as="points">
              <mxPoint x="480" y="420" />
            </Array>
          </mxGeometry>
        </mxCell>
      </root>
    </mxGraphModel>
  </diagram>
</mxfile>
